<svg fill="none" height="100%" width="100%" viewBox="0 0 400 400" xmlns:xlink="http://www.w3.org/1999/xlink" xmlns="http://www.w3.org/2000/svg"><defs><clipPath id="i0"><rect height="400" width="400" y="0" x="0" /></clipPath><filter filterUnits="userSpaceOnUse" height="200%" width="200%" y="-50%" x="-50%" id="f1"><feFlood result="fillFlood0" flood-opacity="0" flood-color="rgb(190, 130, 0)" /><feComposite result="fill0" operator="in" in2="SourceGraphic" in="fillFlood0" /></filter><filter filterUnits="userSpaceOnUse" height="200%" width="200%" y="-50%" x="-50%" id="f2"><feFlood result="fillFlood0" flood-opacity="0" flood-color="rgb(190, 130, 0)" /><feComposite result="fill0" operator="in" in2="SourceGraphic" in="fillFlood0" /></filter><filter filterUnits="userSpaceOnUse" height="200%" width="200%" y="-50%" x="-50%" id="f3"><feFlood result="fillFlood0" flood-opacity="0" flood-color="rgb(190, 130, 0)" /><feComposite result="fill0" operator="in" in2="SourceGraphic" in="fillFlood0" /></filter><filter filterUnits="userSpaceOnUse" height="200%" width="200%" y="-50%" x="-50%" id="f4"><feFlood result="fillFlood0" flood-opacity="0" flood-color="rgb(190, 130, 0)" /><feComposite result="fill0" operator="in" in2="SourceGraphic" in="fillFlood0" /></filter><filter filterUnits="userSpaceOnUse" height="200%" width="200%" y="-50%" x="-50%" id="f5"><feFlood result="fillFlood0" flood-opacity="0" flood-color="rgb(190, 130, 0)" /><feComposite result="fill0" operator="in" in2="SourceGraphic" in="fillFlood0" /></filter><filter filterUnits="userSpaceOnUse" height="200%" width="200%" y="-50%" x="-50%" id="f6"><feFlood result="fillFlood0" flood-opacity="0" flood-color="rgb(190, 130, 0)" /><feComposite result="fill0" operator="in" in2="SourceGraphic" in="fillFlood0" /></filter><filter filterUnits="userSpaceOnUse" height="200%" width="200%" y="-50%" x="-50%" id="f7"><feFlood result="fillFlood0" flood-opacity="0" flood-color="rgb(190, 130, 0)" /><feComposite result="fill0" operator="in" in2="SourceGraphic" in="fillFlood0" /></filter><filter filterUnits="userSpaceOnUse" height="200%" width="200%" y="-50%" x="-50%" id="f8"><feFlood result="fillFlood0" flood-opacity="0" flood-color="rgb(190, 130, 0)" /><feComposite result="fill0" operator="in" in2="SourceGraphic" in="fillFlood0" /></filter><g id="i9"><g transform="matrix(0.582,0.757,-0.251,0.515,200,200)" id="i10"><g transform="matrix(1,0,0,1,7.044,14.544)" id="i11"><g id="i12" transform="matrix(1,0,0,1,-11.5,-20.5)"><ellipse ry="40" rx="40" cy="0" cx="0" fill="#ffd737" /></g><g id="i13" transform="matrix(1.191,0,0,1.191,-11.5,-20.5)"><ellipse ry="23.125" rx="23.125" cy="0" cx="0" fill="#fcac00" /></g><g id="i14" transform="matrix(1,0,0,1,-11.375,-10.5)"><path fill="#752b00" d="M1.276,2.512C1.276,2.512,1.276,-0.526,1.276,-0.526C4.284,-1.022,5.89,-3.184,5.89,-5.491C5.89,-8.09,4.371,-9.608,1.363,-10.835C-1.178,-11.886,-2.258,-12.646,-2.258,-14.165C-2.258,-15.333,-1.411,-16.676,0.838,-16.676C2.707,-16.676,3.905,-16.033,4.518,-15.683C4.518,-15.683,5.248,-17.611,5.248,-17.611C4.401,-18.107,3.203,-18.575,1.451,-18.633C1.451,-18.633,1.451,-21.466,1.451,-21.466C1.451,-21.466,-0.36,-21.466,-0.36,-21.466C-0.36,-21.466,-0.36,-18.516,-0.36,-18.516C-3.047,-18.078,-4.77,-16.238,-4.77,-13.814C-4.77,-11.273,-2.93,-9.93,0.049,-8.762C2.21,-7.886,3.349,-6.892,3.349,-5.286C3.349,-3.621,1.948,-2.424,-0.126,-2.424C-1.761,-2.424,-3.281,-2.979,-4.332,-3.68C-4.332,-3.68,-5.033,-1.723,-5.033,-1.723C-4.011,-0.993,-2.258,-0.467,-0.564,-0.438C-0.564,-0.438,-0.564,2.512,-0.564,2.512C-0.564,2.512,1.276,2.512,1.276,2.512Z" /></g></g></g><g transform="matrix(0.582,0.757,-0.251,0.515,200,200)" id="i10"><g filter="url(#f1)" transform="matrix(1,0,0,1,7.044,14.544)" id="i15"><g id="i12" transform="matrix(1,0,0,1,-11.5,-20.5)"><ellipse ry="40" rx="40" cy="0" cx="0" fill="#ffd737" /></g><g id="i13" transform="matrix(1.191,0,0,1.191,-11.5,-20.5)"><ellipse ry="23.125" rx="23.125" cy="0" cx="0" fill="#fcac00" /></g><g id="i14" transform="matrix(1,0,0,1,-11.375,-10.5)"><path fill="#752b00" d="M1.276,2.512C1.276,2.512,1.276,-0.526,1.276,-0.526C4.284,-1.022,5.89,-3.184,5.89,-5.491C5.89,-8.09,4.371,-9.608,1.363,-10.835C-1.178,-11.886,-2.258,-12.646,-2.258,-14.165C-2.258,-15.333,-1.411,-16.676,0.838,-16.676C2.707,-16.676,3.905,-16.033,4.518,-15.683C4.518,-15.683,5.248,-17.611,5.248,-17.611C4.401,-18.107,3.203,-18.575,1.451,-18.633C1.451,-18.633,1.451,-21.466,1.451,-21.466C1.451,-21.466,-0.36,-21.466,-0.36,-21.466C-0.36,-21.466,-0.36,-18.516,-0.36,-18.516C-3.047,-18.078,-4.77,-16.238,-4.77,-13.814C-4.77,-11.273,-2.93,-9.93,0.049,-8.762C2.21,-7.886,3.349,-6.892,3.349,-5.286C3.349,-3.621,1.948,-2.424,-0.126,-2.424C-1.761,-2.424,-3.281,-2.979,-4.332,-3.68C-4.332,-3.68,-5.033,-1.723,-5.033,-1.723C-4.011,-0.993,-2.258,-0.467,-0.564,-0.438C-0.564,-0.438,-0.564,2.512,-0.564,2.512C-0.564,2.512,1.276,2.512,1.276,2.512Z" /></g></g></g><g transform="matrix(0.582,0.757,-0.251,0.515,200,200)" id="i10"><g filter="url(#f2)" transform="matrix(1,0,0,1,7.044,14.544)" id="i16"><g id="i12" transform="matrix(1,0,0,1,-11.5,-20.5)"><ellipse ry="40" rx="40" cy="0" cx="0" fill="#ffd737" /></g><g id="i13" transform="matrix(1.191,0,0,1.191,-11.5,-20.5)"><ellipse ry="23.125" rx="23.125" cy="0" cx="0" fill="#fcac00" /></g><g id="i14" transform="matrix(1,0,0,1,-11.375,-10.5)"><path fill="#752b00" d="M1.276,2.512C1.276,2.512,1.276,-0.526,1.276,-0.526C4.284,-1.022,5.89,-3.184,5.89,-5.491C5.89,-8.09,4.371,-9.608,1.363,-10.835C-1.178,-11.886,-2.258,-12.646,-2.258,-14.165C-2.258,-15.333,-1.411,-16.676,0.838,-16.676C2.707,-16.676,3.905,-16.033,4.518,-15.683C4.518,-15.683,5.248,-17.611,5.248,-17.611C4.401,-18.107,3.203,-18.575,1.451,-18.633C1.451,-18.633,1.451,-21.466,1.451,-21.466C1.451,-21.466,-0.36,-21.466,-0.36,-21.466C-0.36,-21.466,-0.36,-18.516,-0.36,-18.516C-3.047,-18.078,-4.77,-16.238,-4.77,-13.814C-4.77,-11.273,-2.93,-9.93,0.049,-8.762C2.21,-7.886,3.349,-6.892,3.349,-5.286C3.349,-3.621,1.948,-2.424,-0.126,-2.424C-1.761,-2.424,-3.281,-2.979,-4.332,-3.68C-4.332,-3.68,-5.033,-1.723,-5.033,-1.723C-4.011,-0.993,-2.258,-0.467,-0.564,-0.438C-0.564,-0.438,-0.564,2.512,-0.564,2.512C-0.564,2.512,1.276,2.512,1.276,2.512Z" /></g></g></g><g transform="matrix(0.582,0.757,-0.251,0.515,200,200)" id="i10"><g filter="url(#f3)" transform="matrix(1,0,0,1,7.044,14.544)" id="i17"><g id="i12" transform="matrix(1,0,0,1,-11.5,-20.5)"><ellipse ry="40" rx="40" cy="0" cx="0" fill="#ffd737" /></g><g id="i13" transform="matrix(1.191,0,0,1.191,-11.5,-20.5)"><ellipse ry="23.125" rx="23.125" cy="0" cx="0" fill="#fcac00" /></g><g id="i14" transform="matrix(1,0,0,1,-11.375,-10.5)"><path fill="#752b00" d="M1.276,2.512C1.276,2.512,1.276,-0.526,1.276,-0.526C4.284,-1.022,5.89,-3.184,5.89,-5.491C5.89,-8.09,4.371,-9.608,1.363,-10.835C-1.178,-11.886,-2.258,-12.646,-2.258,-14.165C-2.258,-15.333,-1.411,-16.676,0.838,-16.676C2.707,-16.676,3.905,-16.033,4.518,-15.683C4.518,-15.683,5.248,-17.611,5.248,-17.611C4.401,-18.107,3.203,-18.575,1.451,-18.633C1.451,-18.633,1.451,-21.466,1.451,-21.466C1.451,-21.466,-0.36,-21.466,-0.36,-21.466C-0.36,-21.466,-0.36,-18.516,-0.36,-18.516C-3.047,-18.078,-4.77,-16.238,-4.77,-13.814C-4.77,-11.273,-2.93,-9.93,0.049,-8.762C2.21,-7.886,3.349,-6.892,3.349,-5.286C3.349,-3.621,1.948,-2.424,-0.126,-2.424C-1.761,-2.424,-3.281,-2.979,-4.332,-3.68C-4.332,-3.68,-5.033,-1.723,-5.033,-1.723C-4.011,-0.993,-2.258,-0.467,-0.564,-0.438C-0.564,-0.438,-0.564,2.512,-0.564,2.512C-0.564,2.512,1.276,2.512,1.276,2.512Z" /></g></g></g><g transform="matrix(0.582,0.757,-0.251,0.515,200,200)" id="i10"><g filter="url(#f4)" transform="matrix(1,0,0,1,7.044,14.544)" id="i18"><g id="i12" transform="matrix(1,0,0,1,-11.5,-20.5)"><ellipse ry="40" rx="40" cy="0" cx="0" fill="#ffd737" /></g><g id="i13" transform="matrix(1.191,0,0,1.191,-11.5,-20.5)"><ellipse ry="23.125" rx="23.125" cy="0" cx="0" fill="#fcac00" /></g><g id="i14" transform="matrix(1,0,0,1,-11.375,-10.5)"><path fill="#752b00" d="M1.276,2.512C1.276,2.512,1.276,-0.526,1.276,-0.526C4.284,-1.022,5.89,-3.184,5.89,-5.491C5.89,-8.09,4.371,-9.608,1.363,-10.835C-1.178,-11.886,-2.258,-12.646,-2.258,-14.165C-2.258,-15.333,-1.411,-16.676,0.838,-16.676C2.707,-16.676,3.905,-16.033,4.518,-15.683C4.518,-15.683,5.248,-17.611,5.248,-17.611C4.401,-18.107,3.203,-18.575,1.451,-18.633C1.451,-18.633,1.451,-21.466,1.451,-21.466C1.451,-21.466,-0.36,-21.466,-0.36,-21.466C-0.36,-21.466,-0.36,-18.516,-0.36,-18.516C-3.047,-18.078,-4.77,-16.238,-4.77,-13.814C-4.77,-11.273,-2.93,-9.93,0.049,-8.762C2.21,-7.886,3.349,-6.892,3.349,-5.286C3.349,-3.621,1.948,-2.424,-0.126,-2.424C-1.761,-2.424,-3.281,-2.979,-4.332,-3.68C-4.332,-3.68,-5.033,-1.723,-5.033,-1.723C-4.011,-0.993,-2.258,-0.467,-0.564,-0.438C-0.564,-0.438,-0.564,2.512,-0.564,2.512C-0.564,2.512,1.276,2.512,1.276,2.512Z" /></g></g></g><g transform="matrix(0.582,0.757,-0.251,0.515,200,200)" id="i10"><g filter="url(#f5)" transform="matrix(1,0,0,1,7.044,14.544)" id="i19"><g id="i12" transform="matrix(1,0,0,1,-11.5,-20.5)"><ellipse ry="40" rx="40" cy="0" cx="0" fill="#ffd737" /></g><g id="i13" transform="matrix(1.191,0,0,1.191,-11.5,-20.5)"><ellipse ry="23.125" rx="23.125" cy="0" cx="0" fill="#fcac00" /></g><g id="i14" transform="matrix(1,0,0,1,-11.375,-10.5)"><path fill="#752b00" d="M1.276,2.512C1.276,2.512,1.276,-0.526,1.276,-0.526C4.284,-1.022,5.89,-3.184,5.89,-5.491C5.89,-8.09,4.371,-9.608,1.363,-10.835C-1.178,-11.886,-2.258,-12.646,-2.258,-14.165C-2.258,-15.333,-1.411,-16.676,0.838,-16.676C2.707,-16.676,3.905,-16.033,4.518,-15.683C4.518,-15.683,5.248,-17.611,5.248,-17.611C4.401,-18.107,3.203,-18.575,1.451,-18.633C1.451,-18.633,1.451,-21.466,1.451,-21.466C1.451,-21.466,-0.36,-21.466,-0.36,-21.466C-0.36,-21.466,-0.36,-18.516,-0.36,-18.516C-3.047,-18.078,-4.77,-16.238,-4.77,-13.814C-4.77,-11.273,-2.93,-9.93,0.049,-8.762C2.21,-7.886,3.349,-6.892,3.349,-5.286C3.349,-3.621,1.948,-2.424,-0.126,-2.424C-1.761,-2.424,-3.281,-2.979,-4.332,-3.68C-4.332,-3.68,-5.033,-1.723,-5.033,-1.723C-4.011,-0.993,-2.258,-0.467,-0.564,-0.438C-0.564,-0.438,-0.564,2.512,-0.564,2.512C-0.564,2.512,1.276,2.512,1.276,2.512Z" /></g></g></g><g transform="matrix(0.582,0.757,-0.251,0.515,200,200)" id="i10"><g filter="url(#f6)" transform="matrix(1,0,0,1,7.044,14.544)" id="i20"><g id="i12" transform="matrix(1,0,0,1,-11.5,-20.5)"><ellipse ry="40" rx="40" cy="0" cx="0" fill="#ffd737" /></g><g id="i13" transform="matrix(1.191,0,0,1.191,-11.5,-20.5)"><ellipse ry="23.125" rx="23.125" cy="0" cx="0" fill="#fcac00" /></g><g id="i14" transform="matrix(1,0,0,1,-11.375,-10.5)"><path fill="#752b00" d="M1.276,2.512C1.276,2.512,1.276,-0.526,1.276,-0.526C4.284,-1.022,5.89,-3.184,5.89,-5.491C5.89,-8.09,4.371,-9.608,1.363,-10.835C-1.178,-11.886,-2.258,-12.646,-2.258,-14.165C-2.258,-15.333,-1.411,-16.676,0.838,-16.676C2.707,-16.676,3.905,-16.033,4.518,-15.683C4.518,-15.683,5.248,-17.611,5.248,-17.611C4.401,-18.107,3.203,-18.575,1.451,-18.633C1.451,-18.633,1.451,-21.466,1.451,-21.466C1.451,-21.466,-0.36,-21.466,-0.36,-21.466C-0.36,-21.466,-0.36,-18.516,-0.36,-18.516C-3.047,-18.078,-4.77,-16.238,-4.77,-13.814C-4.77,-11.273,-2.93,-9.93,0.049,-8.762C2.21,-7.886,3.349,-6.892,3.349,-5.286C3.349,-3.621,1.948,-2.424,-0.126,-2.424C-1.761,-2.424,-3.281,-2.979,-4.332,-3.68C-4.332,-3.68,-5.033,-1.723,-5.033,-1.723C-4.011,-0.993,-2.258,-0.467,-0.564,-0.438C-0.564,-0.438,-0.564,2.512,-0.564,2.512C-0.564,2.512,1.276,2.512,1.276,2.512Z" /></g></g></g><g transform="matrix(0.582,0.757,-0.251,0.515,200,200)" id="i10"><g filter="url(#f7)" transform="matrix(1,0,0,1,7.044,14.544)" id="i21"><g id="i12" transform="matrix(1,0,0,1,-11.5,-20.5)"><ellipse ry="40" rx="40" cy="0" cx="0" fill="#ffd737" /></g><g id="i13" transform="matrix(1.191,0,0,1.191,-11.5,-20.5)"><ellipse ry="23.125" rx="23.125" cy="0" cx="0" fill="#fcac00" /></g><g id="i14" transform="matrix(1,0,0,1,-11.375,-10.5)"><path fill="#752b00" d="M1.276,2.512C1.276,2.512,1.276,-0.526,1.276,-0.526C4.284,-1.022,5.89,-3.184,5.89,-5.491C5.89,-8.09,4.371,-9.608,1.363,-10.835C-1.178,-11.886,-2.258,-12.646,-2.258,-14.165C-2.258,-15.333,-1.411,-16.676,0.838,-16.676C2.707,-16.676,3.905,-16.033,4.518,-15.683C4.518,-15.683,5.248,-17.611,5.248,-17.611C4.401,-18.107,3.203,-18.575,1.451,-18.633C1.451,-18.633,1.451,-21.466,1.451,-21.466C1.451,-21.466,-0.36,-21.466,-0.36,-21.466C-0.36,-21.466,-0.36,-18.516,-0.36,-18.516C-3.047,-18.078,-4.77,-16.238,-4.77,-13.814C-4.77,-11.273,-2.93,-9.93,0.049,-8.762C2.21,-7.886,3.349,-6.892,3.349,-5.286C3.349,-3.621,1.948,-2.424,-0.126,-2.424C-1.761,-2.424,-3.281,-2.979,-4.332,-3.68C-4.332,-3.68,-5.033,-1.723,-5.033,-1.723C-4.011,-0.993,-2.258,-0.467,-0.564,-0.438C-0.564,-0.438,-0.564,2.512,-0.564,2.512C-0.564,2.512,1.276,2.512,1.276,2.512Z" /></g></g></g><g transform="matrix(0.582,0.757,-0.251,0.515,200,200)" id="i10"><g filter="url(#f8)" transform="matrix(1,0,0,1,7.044,14.544)" id="i22"><g id="i12" transform="matrix(1,0,0,1,-11.5,-20.5)"><ellipse ry="40" rx="40" cy="0" cx="0" fill="#ffd737" /></g><g id="i13" transform="matrix(1.191,0,0,1.191,-11.5,-20.5)"><ellipse ry="23.125" rx="23.125" cy="0" cx="0" fill="#fcac00" /></g><g id="i14" transform="matrix(1,0,0,1,-11.375,-10.5)"><path fill="#752b00" d="M1.276,2.512C1.276,2.512,1.276,-0.526,1.276,-0.526C4.284,-1.022,5.89,-3.184,5.89,-5.491C5.89,-8.09,4.371,-9.608,1.363,-10.835C-1.178,-11.886,-2.258,-12.646,-2.258,-14.165C-2.258,-15.333,-1.411,-16.676,0.838,-16.676C2.707,-16.676,3.905,-16.033,4.518,-15.683C4.518,-15.683,5.248,-17.611,5.248,-17.611C4.401,-18.107,3.203,-18.575,1.451,-18.633C1.451,-18.633,1.451,-21.466,1.451,-21.466C1.451,-21.466,-0.36,-21.466,-0.36,-21.466C-0.36,-21.466,-0.36,-18.516,-0.36,-18.516C-3.047,-18.078,-4.77,-16.238,-4.77,-13.814C-4.77,-11.273,-2.93,-9.93,0.049,-8.762C2.21,-7.886,3.349,-6.892,3.349,-5.286C3.349,-3.621,1.948,-2.424,-0.126,-2.424C-1.761,-2.424,-3.281,-2.979,-4.332,-3.68C-4.332,-3.68,-5.033,-1.723,-5.033,-1.723C-4.011,-0.993,-2.258,-0.467,-0.564,-0.438C-0.564,-0.438,-0.564,2.512,-0.564,2.512C-0.564,2.512,1.276,2.512,1.276,2.512Z" /></g></g></g><g transform="matrix(0.582,0.757,-0.251,0.515,200,200)" id="i10"><g transform="matrix(1,0,0,1,7.044,14.544)" id="i23"><g id="i12" transform="matrix(1,0,0,1,-11.5,-20.5)"><ellipse ry="40" rx="40" cy="0" cx="0" fill="#ffd737" /></g><g id="i13" transform="matrix(1.191,0,0,1.191,-11.5,-20.5)"><ellipse ry="23.125" rx="23.125" cy="0" cx="0" fill="#fcac00" /></g><g id="i14" transform="matrix(1,0,0,1,-11.375,-10.5)"><path fill="#752b00" d="M1.276,2.512C1.276,2.512,1.276,-0.526,1.276,-0.526C4.284,-1.022,5.89,-3.184,5.89,-5.491C5.89,-8.09,4.371,-9.608,1.363,-10.835C-1.178,-11.886,-2.258,-12.646,-2.258,-14.165C-2.258,-15.333,-1.411,-16.676,0.838,-16.676C2.707,-16.676,3.905,-16.033,4.518,-15.683C4.518,-15.683,5.248,-17.611,5.248,-17.611C4.401,-18.107,3.203,-18.575,1.451,-18.633C1.451,-18.633,1.451,-21.466,1.451,-21.466C1.451,-21.466,-0.36,-21.466,-0.36,-21.466C-0.36,-21.466,-0.36,-18.516,-0.36,-18.516C-3.047,-18.078,-4.77,-16.238,-4.77,-13.814C-4.77,-11.273,-2.93,-9.93,0.049,-8.762C2.21,-7.886,3.349,-6.892,3.349,-5.286C3.349,-3.621,1.948,-2.424,-0.126,-2.424C-1.761,-2.424,-3.281,-2.979,-4.332,-3.68C-4.332,-3.68,-5.033,-1.723,-5.033,-1.723C-4.011,-0.993,-2.258,-0.467,-0.564,-0.438C-0.564,-0.438,-0.564,2.512,-0.564,2.512C-0.564,2.512,1.276,2.512,1.276,2.512Z" /></g></g></g><g transform="matrix(0.582,0.757,-0.251,0.515,200,200)" opacity="0" id="i10" /></g><filter id="i24"><feColorMatrix values="0" type="saturate" /></filter><mask height="20000" width="20000" y="-10000" x="-10000" maskContentUnits="userSpaceOnUse" maskUnits="userSpaceOnUse" style="mask-type: luminance" mask-type="luminance" id="i25"><g filter="url(#i24)"><g><g transform="translate(197.246,152.368)"><animateTransform repeatCount="indefinite" type="translate" attributeName="transform" dur="4s" begin="0s" calcMode="spline" values="197.246 152.368; 173.746 128.368; 173.746 128.368; 197.246 152.368; 197.246 152.368" keyTimes="0; 0.167813; 0.579167; 0.704167; 1" keySplines="0.317 0 0.146 1; 0 0 1 1; 0.317 0 0.146 1; 0 0 1 1" fill="freeze" /><g transform="rotate(0)"><animateTransform repeatCount="indefinite" type="rotate" attributeName="transform" dur="4s" begin="0s" calcMode="spline" values="0; -9; -9; 0; 0" keyTimes="0; 0.125; 0.579167; 0.704167; 1" keySplines="0.526 0 0 1; 0.386 0 0.464 1; 0.526 0 0 1; 0 0 1 1" fill="freeze" /><g transform="scale(1,1) translate(-56.098,-84.182)"><g id="i26" transform="matrix(1,0,0,1,56.591,84.182)"><path fill="#1ebc61" d="M-18.007,82.432C-21.682,82.432,-24.892,79.816,-25.638,76.213C-25.638,76.213,-53.832,-59.839,-53.832,-59.839C-54.255,-61.879,-53.858,-63.962,-52.714,-65.703C-51.57,-67.445,-49.817,-68.637,-47.776,-69.06C-47.776,-69.06,15.967,-82.269,15.967,-82.269C16.492,-82.377,17.026,-82.432,17.557,-82.432C21.233,-82.432,24.442,-79.817,25.189,-76.213C25.189,-76.213,53.382,59.837,53.382,59.837C54.255,64.049,51.538,68.186,47.326,69.059C47.326,69.059,-16.418,82.268,-16.418,82.268C-16.941,82.376,-17.476,82.432,-18.007,82.432Z" /></g><g id="i27" transform="matrix(1,0,0,1,56.098,84.182)"><path fill="#66142e" fill-rule="evenodd" d="M18.05,-80.932C20.974,-80.933,23.596,-78.885,24.213,-75.909C24.213,-75.909,52.406,60.142,52.406,60.142C53.112,63.549,50.923,66.884,47.515,67.59C47.515,67.59,-16.229,80.799,-16.229,80.799C-16.66,80.888,-17.09,80.932,-17.514,80.932C-20.438,80.932,-23.06,78.885,-23.677,75.909C-23.677,75.909,-51.87,-60.142,-51.87,-60.142C-52.576,-63.55,-50.386,-66.884,-46.979,-67.59C-46.979,-67.59,16.765,-80.8,16.765,-80.8C17.196,-80.889,17.626,-80.932,18.05,-80.932ZM18.05,-83.932C18.05,-83.932,18.05,-83.932,18.05,-83.932C17.416,-83.932,16.779,-83.867,16.156,-83.738C16.156,-83.738,-47.588,-70.528,-47.588,-70.528C-52.609,-69.488,-55.848,-64.555,-54.807,-59.534C-54.807,-59.534,-26.614,76.517,-26.614,76.517C-25.724,80.814,-21.897,83.932,-17.514,83.932C-16.881,83.932,-16.243,83.866,-15.62,83.737C-15.62,83.737,48.124,70.528,48.124,70.528C50.556,70.024,52.647,68.603,54.011,66.526C55.374,64.449,55.848,61.966,55.343,59.534C55.343,59.534,27.151,-76.517,27.151,-76.517C26.26,-80.814,22.433,-83.932,18.05,-83.932Z" /></g><g id="i28" transform="matrix(1,0,0,1,41.151,83.851)"><path fill="#ffffff" d="M-34.544,-59.965C-35.023,-62.275,-33.538,-64.536,-31.228,-65.015C-31.228,-65.015,36.488,-79.047,36.488,-79.047C36.678,-79.086,36.866,-79.093,37.055,-79.106C35.627,-80.311,33.683,-80.877,31.712,-80.468C31.712,-80.468,-32.032,-67.259,-32.032,-67.259C-35.439,-66.553,-37.629,-63.219,-36.923,-59.811C-36.923,-59.811,-8.73,76.239,-8.73,76.239C-8.321,78.212,-7.03,79.77,-5.357,80.601C-5.419,80.423,-5.488,80.249,-5.528,80.058C-5.528,80.058,-34.544,-59.965,-34.544,-59.965Z" /></g><g id="i29" transform="matrix(1,0,0,1,56.395,84.182)"><path fill="#4eec91" d="M-6.969,69.59C-7.433,69.59,-7.849,69.266,-7.947,68.793C-8.629,65.503,-11.558,63.114,-14.913,63.114C-15.398,63.114,-15.886,63.165,-16.366,63.265C-16.435,63.278,-16.503,63.285,-16.57,63.285C-17.034,63.285,-17.45,62.96,-17.548,62.488C-17.548,62.488,-40.937,-50.38,-40.937,-50.38C-40.991,-50.64,-40.94,-50.91,-40.794,-51.132C-40.649,-51.354,-40.421,-51.509,-40.161,-51.562C-36.316,-52.359,-33.836,-56.136,-34.632,-59.981C-34.744,-60.522,-34.397,-61.052,-33.856,-61.163C-33.856,-61.163,6.706,-69.569,6.706,-69.569C6.774,-69.583,6.844,-69.59,6.911,-69.59C7.375,-69.59,7.791,-69.265,7.889,-68.793C8.571,-65.502,11.501,-63.114,14.854,-63.114C15.34,-63.114,15.828,-63.165,16.307,-63.264C16.375,-63.278,16.443,-63.285,16.51,-63.285C16.704,-63.285,16.896,-63.229,17.06,-63.121C17.282,-62.975,17.437,-62.747,17.491,-62.488C17.491,-62.488,40.88,50.381,40.88,50.381C40.991,50.922,40.644,51.451,40.103,51.564C36.258,52.361,33.778,56.137,34.575,59.982C34.686,60.523,34.34,61.052,33.799,61.164C33.799,61.164,-6.765,69.569,-6.765,69.569C-6.834,69.583,-6.902,69.59,-6.969,69.59Z" /></g><g id="i30" transform="matrix(1,0,0,1,56.366,84.182)"><path fill="#66142e" fill-rule="evenodd" d="M6.939,-68.59C7.734,-64.753,11.114,-62.114,14.883,-62.114C15.43,-62.114,15.984,-62.17,16.54,-62.285C16.54,-62.285,39.929,50.584,39.929,50.584C35.537,51.494,32.714,55.792,33.624,60.184C33.624,60.184,-6.938,68.59,-6.938,68.59C-7.733,64.754,-11.114,62.114,-14.883,62.114C-15.43,62.114,-15.983,62.17,-16.54,62.285C-16.54,62.285,-39.929,-50.583,-39.929,-50.583C-35.536,-51.493,-32.713,-55.792,-33.624,-60.185C-33.624,-60.185,6.939,-68.59,6.939,-68.59ZM6.939,-70.59C6.804,-70.59,6.668,-70.576,6.533,-70.548C6.533,-70.548,-34.029,-62.143,-34.029,-62.143C-35.111,-61.919,-35.806,-60.861,-35.582,-59.778C-35.25,-58.178,-35.561,-56.543,-36.459,-55.176C-37.357,-53.809,-38.733,-52.873,-40.334,-52.541C-40.854,-52.434,-41.309,-52.124,-41.601,-51.681C-41.892,-51.237,-41.995,-50.696,-41.887,-50.177C-41.887,-50.177,-18.498,62.691,-18.498,62.691C-18.302,63.636,-17.47,64.285,-16.541,64.285C-16.407,64.285,-16.27,64.271,-16.134,64.243C-15.721,64.158,-15.3,64.114,-14.883,64.114C-12,64.114,-9.483,66.167,-8.897,68.996C-8.701,69.94,-7.869,70.59,-6.94,70.59C-6.806,70.59,-6.669,70.576,-6.533,70.548C-6.533,70.548,34.03,62.142,34.03,62.142C35.111,61.919,35.807,60.86,35.583,59.778C34.897,56.473,37.03,53.227,40.335,52.542C40.855,52.434,41.31,52.125,41.601,51.681C41.892,51.238,41.995,50.697,41.888,50.178C41.888,50.178,18.499,-62.692,18.499,-62.692C18.303,-63.636,17.47,-64.285,16.542,-64.285C16.408,-64.285,16.271,-64.272,16.134,-64.243C15.721,-64.158,15.3,-64.114,14.883,-64.114C12.001,-64.114,9.483,-66.167,8.897,-68.996C8.79,-69.515,8.48,-69.971,8.037,-70.262C7.709,-70.478,7.326,-70.59,6.939,-70.59Z" /></g><g id="i31" transform="matrix(1,0,0,1,56.366,84.182)"><path fill="#1ebc61" d="M15.722,-3.258C17.522,5.427,11.941,13.925,3.258,15.725C-5.425,17.524,-13.921,11.942,-15.721,3.258C-17.521,-5.427,-11.941,-13.926,-3.258,-15.725C5.425,-17.524,13.922,-11.943,15.722,-3.258Z" /></g><g id="i32" transform="matrix(1,0,0,1,56.602,84.288)"><path fill="#4eec91" d="M-3.474,5.749C-5.603,5.782,-7.511,4.576,-8.356,2.003C-8.356,2.003,-10.941,2.044,-10.941,2.044C-10.941,2.044,-10.993,-1.251,-10.993,-1.251C-10.993,-1.251,-8.812,-1.285,-8.812,-1.285C-8.796,-3.111,-8.348,-4.873,-7.861,-5.782C-7.861,-5.782,-4.696,-5.055,-4.696,-5.055C-5.203,-4.02,-5.705,-2.436,-5.68,-0.807C-5.653,0.947,-4.911,1.861,-3.809,1.843C-2.76,1.827,-2.171,1.015,-1.476,-1.025C-0.544,-3.845,0.982,-5.698,3.438,-5.736C5.76,-5.772,7.665,-4.236,8.349,-1.553C8.349,-1.553,10.942,-1.592,10.942,-1.592C10.942,-1.592,10.993,1.702,10.993,1.702C10.993,1.702,8.582,1.739,8.582,1.739C8.484,3.069,8.177,4.102,7.837,4.894C7.837,4.894,4.741,4.092,4.741,4.092C5.057,3.412,5.513,2.199,5.487,0.548C5.461,-1.106,4.7,-1.896,3.82,-1.882C2.745,-1.865,2.285,-0.904,1.491,1.286C0.436,4.286,-1.096,5.712,-3.474,5.749Z" /></g><g id="i33" transform="matrix(1,0,0,1,45.909,33.719)"><path fill="#1ebc61" d="M0.072,4.577C-2.456,4.616,-4.538,2.6,-4.577,0.072C-4.617,-2.456,-2.6,-4.537,-0.072,-4.576C2.456,-4.616,4.537,-2.598,4.577,-0.07C4.616,2.457,2.6,4.538,0.072,4.577Z" /></g></g></g></g></g></g></mask></defs><g transform="matrix(0.9,0,0,0.9,134.385,334.28)" opacity="0.38" id="i34"><g id="i33" transform="matrix(1,0,0,1,80.033,10.642)"><path fill="#66142e" fill-opacity="0.3" d="M80.033,0C80.033,5.877,44.201,10.642,0,10.642C-44.2,10.642,-80.032,5.877,-80.032,0C-80.032,-5.877,-44.2,-10.642,0,-10.642C44.201,-10.642,80.033,-5.877,80.033,0Z" /></g></g><g opacity="0.38" id="i35"><g transform="translate(302.165,343.858)"><g transform="scale(0.3,0.3)"><animateTransform repeatCount="indefinite" type="scale" attributeName="transform" dur="4s" begin="0s" calcMode="spline" values="0.3 0.3; 0.3 0.3; 0.2 0.2; 0.2 0.2; 0.3 0.3; 0.3 0.3" keyTimes="0; 0.041667; 0.166666; 0.691667; 0.816667; 1" keySplines="0 0 1 1; 0.216 0 0.029 1; 0 0 1 1; 0.551 0 0.336 1; 0 0 1 1" fill="freeze" /><g transform="translate(-80.033,-10.642)"><g id="i33" transform="matrix(1,0,0,1,80.033,10.642)"><path fill="#66142e" fill-opacity="0.3" d="M80.033,0C80.033,5.877,44.201,10.642,0,10.642C-44.2,10.642,-80.032,5.877,-80.032,0C-80.032,-5.877,-44.2,-10.642,0,-10.642C44.201,-10.642,80.033,-5.877,80.033,0Z" /></g></g></g></g></g><g opacity="0.38" id="i36"><g transform="translate(111.165,343.858)"><g transform="scale(0.3,0.3)"><animateTransform repeatCount="indefinite" type="scale" attributeName="transform" dur="4s" begin="0s" calcMode="spline" values="0.3 0.3; 0.3 0.3; 0.2 0.2; 0.2 0.2; 0.3 0.3; 0.3 0.3" keyTimes="0; 0.041667; 0.166666; 0.691667; 0.816667; 1" keySplines="0 0 1 1; 0.216 0 0.029 1; 0 0 1 1; 0.551 0 0.336 1; 0 0 1 1" fill="freeze" /><g transform="translate(-80.033,-10.642)"><g id="i33" transform="matrix(1,0,0,1,80.033,10.642)"><path fill="#66142e" fill-opacity="0.3" d="M80.033,0C80.033,5.877,44.201,10.642,0,10.642C-44.2,10.642,-80.032,5.877,-80.032,0C-80.032,-5.877,-44.2,-10.642,0,-10.642C44.201,-10.642,80.033,-5.877,80.033,0Z" /></g></g></g></g></g><g id="i37"><g transform="translate(198,200)"><animateTransform repeatCount="indefinite" type="translate" attributeName="transform" dur="4s" begin="0s" calcMode="spline" values="198 200; 197 210; 197 210; 198 200; 198 200" keyTimes="0; 0.125; 0.579166; 0.726961; 1" keySplines="0.37 0 0.071 1; 0 0 1 1; 0.108 0 0.134 1; 0 0 1 1" fill="freeze" /><g transform="rotate(0)"><animateTransform repeatCount="indefinite" type="rotate" attributeName="transform" dur="4s" begin="0s" calcMode="spline" values="0; 4; 4; 0; 0" keyTimes="0; 0.125; 0.579167; 0.704167; 1" keySplines="0.333 0 0.667 1; 0.333 0 0.667 1; 0.333 0 0.667 1; 0 0 1 1" fill="freeze" /><g transform="scale(1,1) translate(-50,-50)"><g transform="matrix(1,0,0,1,-37.345,-17.862)" id="i38"><g id="i27" transform="matrix(1,0,0,1,30.858,12.806)"><path fill="#66142e" d="M-15.431,-3.03C-15.431,-3.03,14.211,-3.03,14.211,-3.03C14.211,-3.03,15.431,3.03,15.431,3.03C15.431,3.03,-15.431,-3.03,-15.431,-3.03Z" /></g><g id="i28" transform="matrix(1,0,0,1,118.711,14.481)"><path fill="#66142e" d="M-54.333,6.104C-54.333,6.104,-52.883,6.104,-52.883,6.104C-52.883,6.104,-45.173,6.104,-45.173,6.104C-45.173,6.104,19.083,6.104,19.083,6.104C19.083,6.104,26.798,6.104,26.798,6.104C26.798,6.104,40.882,6.104,40.882,6.104C52.132,6.324,54.332,2.474,51.597,-1.806C48.084,-6.324,39.411,-5.96,29.257,-4.194C29.257,-4.194,-54.333,6.104,-54.333,6.104Z" /></g><g id="i29" transform="matrix(1,0,0,1,91.766,65.092)"><path fill="#d3623b" d="M78.053,-63.592C78.053,-63.592,-80.422,-63.592,-80.422,-63.592C-84.274,-63.592,-87.851,-61.677,-90.012,-58.431C-90.101,-58.222,-90.174,-58.016,-90.247,-57.81C-90.247,-57.81,-74.079,-55.617,-74.079,-55.617C-74.079,-55.617,70.218,-55.617,70.218,-55.617C75.377,-55.617,79.937,-52.156,81.318,-47.197C81.318,-47.197,81.318,-47.188,81.318,-47.188C81.318,-47.188,81.327,-47.155,81.327,-47.155C81.603,-46.174,81.743,-45.144,81.743,-44.092C81.743,-44.092,81.743,52.363,81.743,52.363C81.743,53.645,81.532,54.905,81.116,56.107C80.007,59.339,77.541,61.892,74.353,63.115C74.353,63.115,74.5,63.592,74.5,63.592C84.965,61.13,90.247,57.56,90.078,44.888C90.078,44.888,90.078,-51.567,90.078,-51.567C90.078,-58.197,84.683,-63.592,78.053,-63.592Z" /></g><g id="i30" transform="matrix(1,0,0,1,91.44,9.2)"><path fill="#ffffff" d="M90.154,4.325C90.154,4.325,90.154,7.45,90.154,7.45C90.154,0.95,84.884,-4.325,78.379,-4.325C78.379,-4.325,-80.096,-4.325,-80.096,-4.325C-84.001,-4.325,-87.441,-2.335,-89.456,0.685C-89.681,1.21,-89.846,1.72,-89.961,2.215C-90.321,0.84,-90.191,-0.73,-89.456,-2.44C-87.441,-5.46,-84.001,-7.45,-80.096,-7.45C-80.096,-7.45,78.379,-7.45,78.379,-7.45C84.884,-7.45,90.154,-2.175,90.154,4.325Z" /></g><g id="i31" transform="matrix(1,0,0,1,93.178,69.167)"><path fill="#e67e22" d="M68.667,-17.552C68.667,-20.674,67.436,-23.599,65.201,-25.788C63.703,-27.257,61.829,-28.287,59.783,-28.769C59.783,-28.769,-80.831,-60.305,-80.831,-60.305C-80.831,-60.305,68.807,-60.192,68.807,-60.192C72.478,-60.192,75.901,-58.545,78.197,-55.673C79.921,-53.53,80.831,-50.934,80.831,-48.167C80.831,-48.167,80.831,48.288,80.831,48.288C80.831,49.626,80.612,50.941,80.178,52.195C79.02,55.566,76.448,58.231,73.122,59.507C71.78,60.02,70.366,60.288,68.92,60.303C68.92,60.303,68.667,60.305,68.667,60.305C68.667,60.305,68.667,-17.552,68.667,-17.552Z" /></g><g id="i32" transform="matrix(1,0,0,1,173.903,68.678)"><path fill="#66142e" fill-opacity="0.5" d="M7.691,-53.868C7.691,-53.868,7.691,41.302,7.691,41.302C7.861,54.032,2.316,57.407,-7.694,59.762C-4.459,58.522,-1.914,55.892,-0.784,52.602C-0.369,51.402,-0.144,50.117,-0.144,48.777C-0.144,48.777,-0.144,-47.678,-0.144,-47.678C-0.144,-48.763,-0.289,-49.813,-0.569,-50.808C-0.569,-50.808,-0.569,-50.818,-0.569,-50.818C-0.144,-58.988,5.306,-64.548,7.691,-53.868Z" /></g><g id="i33" transform="matrix(1,0,0,1,91.762,65.166)"><path fill="#66142e" d="M78.058,-64.917C78.058,-64.917,-80.417,-64.917,-80.417,-64.917C-84.688,-64.917,-88.653,-62.793,-91.025,-59.238C-91.076,-59.162,-91.12,-59.081,-91.156,-58.997C-91.291,-58.682,-91.409,-58.368,-91.511,-58.056C-91.511,-58.056,-88.468,-57.643,-88.468,-57.643C-88.462,-57.658,-88.458,-57.673,-88.452,-57.688C-86.629,-60.338,-83.636,-61.917,-80.417,-61.917C-80.417,-61.917,78.058,-61.917,78.058,-61.917C83.724,-61.917,88.333,-57.307,88.333,-51.641C88.333,-51.641,88.333,44.834,88.333,44.834C88.441,52.946,86.196,56.904,81.472,59.338C82.003,58.488,82.442,57.572,82.775,56.605C83.254,55.219,83.497,53.767,83.497,52.289C83.497,52.289,83.497,-44.167,83.497,-44.167C83.497,-51.487,77.542,-57.441,70.222,-57.441C70.222,-57.441,-78.832,-57.441,-78.832,-57.441C-79.446,-57.441,-79.967,-57.062,-80.197,-56.521C-80.197,-56.521,-64.86,-54.441,-64.86,-54.441C-64.86,-54.441,70.222,-54.441,70.222,-54.441C75.888,-54.441,80.497,-49.833,80.497,-44.167C80.497,-44.167,80.497,52.289,80.497,52.289C80.497,53.432,80.309,54.554,79.938,55.627C78.949,58.507,76.753,60.784,73.911,61.874C73.174,62.156,72.781,62.961,73.014,63.716C73.246,64.47,74.023,64.917,74.79,64.734C85.402,62.238,91.512,58.175,91.333,44.814C91.333,44.814,91.333,-51.641,91.333,-51.641C91.333,-58.961,85.378,-64.917,78.058,-64.917Z" /></g></g></g></g></g></g><g id="i39"><g transform="translate(197.246,152.368)"><animateTransform repeatCount="indefinite" type="translate" attributeName="transform" dur="4s" begin="0s" calcMode="spline" values="197.246 152.368; 173.746 128.368; 173.746 128.368; 197.246 152.368; 197.246 152.368" keyTimes="0; 0.167813; 0.579167; 0.704167; 1" keySplines="0.317 0 0.146 1; 0 0 1 1; 0.317 0 0.146 1; 0 0 1 1" fill="freeze" /><g transform="rotate(0)"><animateTransform repeatCount="indefinite" type="rotate" attributeName="transform" dur="4s" begin="0s" calcMode="spline" values="0; -9; -9; 0; 0" keyTimes="0; 0.125; 0.579167; 0.704167; 1" keySplines="0.526 0 0 1; 0.386 0 0.464 1; 0.526 0 0 1; 0 0 1 1" fill="freeze" /><g transform="scale(1,1) translate(-56.098,-84.182)"><g id="i26" transform="matrix(1,0,0,1,56.591,84.182)"><path fill="#1ebc61" d="M-18.007,82.432C-21.682,82.432,-24.892,79.816,-25.638,76.213C-25.638,76.213,-53.832,-59.839,-53.832,-59.839C-54.255,-61.879,-53.858,-63.962,-52.714,-65.703C-51.57,-67.445,-49.817,-68.637,-47.776,-69.06C-47.776,-69.06,15.967,-82.269,15.967,-82.269C16.492,-82.377,17.026,-82.432,17.557,-82.432C21.233,-82.432,24.442,-79.817,25.189,-76.213C25.189,-76.213,53.382,59.837,53.382,59.837C54.255,64.049,51.538,68.186,47.326,69.059C47.326,69.059,-16.418,82.268,-16.418,82.268C-16.941,82.376,-17.476,82.432,-18.007,82.432Z" /></g><g id="i27" transform="matrix(1,0,0,1,56.098,84.182)"><path fill="#66142e" fill-rule="evenodd" d="M18.05,-80.932C20.974,-80.933,23.596,-78.885,24.213,-75.909C24.213,-75.909,52.406,60.142,52.406,60.142C53.112,63.549,50.923,66.884,47.515,67.59C47.515,67.59,-16.229,80.799,-16.229,80.799C-16.66,80.888,-17.09,80.932,-17.514,80.932C-20.438,80.932,-23.06,78.885,-23.677,75.909C-23.677,75.909,-51.87,-60.142,-51.87,-60.142C-52.576,-63.55,-50.386,-66.884,-46.979,-67.59C-46.979,-67.59,16.765,-80.8,16.765,-80.8C17.196,-80.889,17.626,-80.932,18.05,-80.932ZM18.05,-83.932C18.05,-83.932,18.05,-83.932,18.05,-83.932C17.416,-83.932,16.779,-83.867,16.156,-83.738C16.156,-83.738,-47.588,-70.528,-47.588,-70.528C-52.609,-69.488,-55.848,-64.555,-54.807,-59.534C-54.807,-59.534,-26.614,76.517,-26.614,76.517C-25.724,80.814,-21.897,83.932,-17.514,83.932C-16.881,83.932,-16.243,83.866,-15.62,83.737C-15.62,83.737,48.124,70.528,48.124,70.528C50.556,70.024,52.647,68.603,54.011,66.526C55.374,64.449,55.848,61.966,55.343,59.534C55.343,59.534,27.151,-76.517,27.151,-76.517C26.26,-80.814,22.433,-83.932,18.05,-83.932Z" /></g><g id="i28" transform="matrix(1,0,0,1,41.151,83.851)"><path fill="#ffffff" d="M-34.544,-59.965C-35.023,-62.275,-33.538,-64.536,-31.228,-65.015C-31.228,-65.015,36.488,-79.047,36.488,-79.047C36.678,-79.086,36.866,-79.093,37.055,-79.106C35.627,-80.311,33.683,-80.877,31.712,-80.468C31.712,-80.468,-32.032,-67.259,-32.032,-67.259C-35.439,-66.553,-37.629,-63.219,-36.923,-59.811C-36.923,-59.811,-8.73,76.239,-8.73,76.239C-8.321,78.212,-7.03,79.77,-5.357,80.601C-5.419,80.423,-5.488,80.249,-5.528,80.058C-5.528,80.058,-34.544,-59.965,-34.544,-59.965Z" /></g><g id="i29" transform="matrix(1,0,0,1,56.395,84.182)"><path fill="#4eec91" d="M-6.969,69.59C-7.433,69.59,-7.849,69.266,-7.947,68.793C-8.629,65.503,-11.558,63.114,-14.913,63.114C-15.398,63.114,-15.886,63.165,-16.366,63.265C-16.435,63.278,-16.503,63.285,-16.57,63.285C-17.034,63.285,-17.45,62.96,-17.548,62.488C-17.548,62.488,-40.937,-50.38,-40.937,-50.38C-40.991,-50.64,-40.94,-50.91,-40.794,-51.132C-40.649,-51.354,-40.421,-51.509,-40.161,-51.562C-36.316,-52.359,-33.836,-56.136,-34.632,-59.981C-34.744,-60.522,-34.397,-61.052,-33.856,-61.163C-33.856,-61.163,6.706,-69.569,6.706,-69.569C6.774,-69.583,6.844,-69.59,6.911,-69.59C7.375,-69.59,7.791,-69.265,7.889,-68.793C8.571,-65.502,11.501,-63.114,14.854,-63.114C15.34,-63.114,15.828,-63.165,16.307,-63.264C16.375,-63.278,16.443,-63.285,16.51,-63.285C16.704,-63.285,16.896,-63.229,17.06,-63.121C17.282,-62.975,17.437,-62.747,17.491,-62.488C17.491,-62.488,40.88,50.381,40.88,50.381C40.991,50.922,40.644,51.451,40.103,51.564C36.258,52.361,33.778,56.137,34.575,59.982C34.686,60.523,34.34,61.052,33.799,61.164C33.799,61.164,-6.765,69.569,-6.765,69.569C-6.834,69.583,-6.902,69.59,-6.969,69.59Z" /></g><g id="i30" transform="matrix(1,0,0,1,56.366,84.182)"><path fill="#66142e" fill-rule="evenodd" d="M6.939,-68.59C7.734,-64.753,11.114,-62.114,14.883,-62.114C15.43,-62.114,15.984,-62.17,16.54,-62.285C16.54,-62.285,39.929,50.584,39.929,50.584C35.537,51.494,32.714,55.792,33.624,60.184C33.624,60.184,-6.938,68.59,-6.938,68.59C-7.733,64.754,-11.114,62.114,-14.883,62.114C-15.43,62.114,-15.983,62.17,-16.54,62.285C-16.54,62.285,-39.929,-50.583,-39.929,-50.583C-35.536,-51.493,-32.713,-55.792,-33.624,-60.185C-33.624,-60.185,6.939,-68.59,6.939,-68.59ZM6.939,-70.59C6.804,-70.59,6.668,-70.576,6.533,-70.548C6.533,-70.548,-34.029,-62.143,-34.029,-62.143C-35.111,-61.919,-35.806,-60.861,-35.582,-59.778C-35.25,-58.178,-35.561,-56.543,-36.459,-55.176C-37.357,-53.809,-38.733,-52.873,-40.334,-52.541C-40.854,-52.434,-41.309,-52.124,-41.601,-51.681C-41.892,-51.237,-41.995,-50.696,-41.887,-50.177C-41.887,-50.177,-18.498,62.691,-18.498,62.691C-18.302,63.636,-17.47,64.285,-16.541,64.285C-16.407,64.285,-16.27,64.271,-16.134,64.243C-15.721,64.158,-15.3,64.114,-14.883,64.114C-12,64.114,-9.483,66.167,-8.897,68.996C-8.701,69.94,-7.869,70.59,-6.94,70.59C-6.806,70.59,-6.669,70.576,-6.533,70.548C-6.533,70.548,34.03,62.142,34.03,62.142C35.111,61.919,35.807,60.86,35.583,59.778C34.897,56.473,37.03,53.227,40.335,52.542C40.855,52.434,41.31,52.125,41.601,51.681C41.892,51.238,41.995,50.697,41.888,50.178C41.888,50.178,18.499,-62.692,18.499,-62.692C18.303,-63.636,17.47,-64.285,16.542,-64.285C16.408,-64.285,16.271,-64.272,16.134,-64.243C15.721,-64.158,15.3,-64.114,14.883,-64.114C12.001,-64.114,9.483,-66.167,8.897,-68.996C8.79,-69.515,8.48,-69.971,8.037,-70.262C7.709,-70.478,7.326,-70.59,6.939,-70.59Z" /></g><g id="i31" transform="matrix(1,0,0,1,56.366,84.182)"><path fill="#1ebc61" d="M15.722,-3.258C17.522,5.427,11.941,13.925,3.258,15.725C-5.425,17.524,-13.921,11.942,-15.721,3.258C-17.521,-5.427,-11.941,-13.926,-3.258,-15.725C5.425,-17.524,13.922,-11.943,15.722,-3.258Z" /></g><g id="i32" transform="matrix(1,0,0,1,56.602,84.288)"><path fill="#4eec91" d="M-3.474,5.749C-5.603,5.782,-7.511,4.576,-8.356,2.003C-8.356,2.003,-10.941,2.044,-10.941,2.044C-10.941,2.044,-10.993,-1.251,-10.993,-1.251C-10.993,-1.251,-8.812,-1.285,-8.812,-1.285C-8.796,-3.111,-8.348,-4.873,-7.861,-5.782C-7.861,-5.782,-4.696,-5.055,-4.696,-5.055C-5.203,-4.02,-5.705,-2.436,-5.68,-0.807C-5.653,0.947,-4.911,1.861,-3.809,1.843C-2.76,1.827,-2.171,1.015,-1.476,-1.025C-0.544,-3.845,0.982,-5.698,3.438,-5.736C5.76,-5.772,7.665,-4.236,8.349,-1.553C8.349,-1.553,10.942,-1.592,10.942,-1.592C10.942,-1.592,10.993,1.702,10.993,1.702C10.993,1.702,8.582,1.739,8.582,1.739C8.484,3.069,8.177,4.102,7.837,4.894C7.837,4.894,4.741,4.092,4.741,4.092C5.057,3.412,5.513,2.199,5.487,0.548C5.461,-1.106,4.7,-1.896,3.82,-1.882C2.745,-1.865,2.285,-0.904,1.491,1.286C0.436,4.286,-1.096,5.712,-3.474,5.749Z" /></g><g id="i33" transform="matrix(1,0,0,1,45.909,33.719)"><path fill="#1ebc61" d="M0.072,4.577C-2.456,4.616,-4.538,2.6,-4.577,0.072C-4.617,-2.456,-2.6,-4.537,-0.072,-4.576C2.456,-4.616,4.537,-2.598,4.577,-0.07C4.616,2.457,2.6,4.538,0.072,4.577Z" /></g></g></g></g></g><g mask="url(#i25)" id="i40"><g transform="translate(216.998,141.959)"><animateTransform repeatCount="indefinite" type="translate" attributeName="transform" dur="4s" begin="0s" calcMode="spline" values="216.998 141.959; 235.498 118.459; 235.498 118.459; 216.998 141.959; 216.998 141.959" keyTimes="0; 0.167813; 0.579167; 0.704167; 1" keySplines="0.317 0 0.146 1; 0 0 1 1; 0.317 0 0.146 1; 0 0 1 1" fill="freeze" /><g transform="rotate(0)"><animateTransform repeatCount="indefinite" type="rotate" attributeName="transform" dur="4s" begin="0s" calcMode="spline" values="0; 8; 8; 0; 0" keyTimes="0; 0.125; 0.579167; 0.704167; 1" keySplines="0.526 0 0 1; 0.386 0 0.464 1; 0.526 0 0 1; 0 0 1 1" fill="freeze" /><g transform="scale(1,1) translate(-57.865,-84.578)"><g transform="matrix(1,0,0,1,-7.333,11.751)" id="i41"><g id="i33" transform="matrix(1,0,0,1,49.279,83.524)"><path fill="#000000" fill-opacity="0.3" d="M21.944,82.133C21.352,82.133,20.757,82.065,20.176,81.93C20.176,81.93,-43.24,67.229,-43.24,67.229C-47.43,66.257,-50.048,62.059,-49.077,57.868C-49.077,57.868,-17.7,-77.484,-17.7,-77.484C-16.876,-81.04,-13.753,-83.524,-10.106,-83.524C-9.515,-83.524,-8.92,-83.456,-8.339,-83.322C-8.339,-83.322,55.077,-68.62,55.077,-68.62C59.266,-67.649,61.885,-63.45,60.915,-59.26C60.915,-59.26,29.537,76.093,29.537,76.093C28.714,79.65,25.59,82.133,21.944,82.133Z" /></g></g></g></g></g></g><g display="none" id="i42"><g transform="translate(197.246,152.368)"><animateTransform repeatCount="indefinite" type="translate" attributeName="transform" dur="4s" begin="0s" calcMode="spline" values="197.246 152.368; 173.746 128.368; 173.746 128.368; 197.246 152.368; 197.246 152.368" keyTimes="0; 0.167813; 0.579167; 0.704167; 1" keySplines="0.317 0 0.146 1; 0 0 1 1; 0.317 0 0.146 1; 0 0 1 1" fill="freeze" /><g transform="rotate(0)"><animateTransform repeatCount="indefinite" type="rotate" attributeName="transform" dur="4s" begin="0s" calcMode="spline" values="0; -9; -9; 0; 0" keyTimes="0; 0.125; 0.579167; 0.704167; 1" keySplines="0.526 0 0 1; 0.386 0 0.464 1; 0.526 0 0 1; 0 0 1 1" fill="freeze" /><g transform="scale(1,1) translate(-56.098,-84.182)"><g id="i26" transform="matrix(1,0,0,1,56.591,84.182)"><path fill="#1ebc61" d="M-18.007,82.432C-21.682,82.432,-24.892,79.816,-25.638,76.213C-25.638,76.213,-53.832,-59.839,-53.832,-59.839C-54.255,-61.879,-53.858,-63.962,-52.714,-65.703C-51.57,-67.445,-49.817,-68.637,-47.776,-69.06C-47.776,-69.06,15.967,-82.269,15.967,-82.269C16.492,-82.377,17.026,-82.432,17.557,-82.432C21.233,-82.432,24.442,-79.817,25.189,-76.213C25.189,-76.213,53.382,59.837,53.382,59.837C54.255,64.049,51.538,68.186,47.326,69.059C47.326,69.059,-16.418,82.268,-16.418,82.268C-16.941,82.376,-17.476,82.432,-18.007,82.432Z" /></g><g id="i27" transform="matrix(1,0,0,1,56.098,84.182)"><path fill="#66142e" fill-rule="evenodd" d="M18.05,-80.932C20.974,-80.933,23.596,-78.885,24.213,-75.909C24.213,-75.909,52.406,60.142,52.406,60.142C53.112,63.549,50.923,66.884,47.515,67.59C47.515,67.59,-16.229,80.799,-16.229,80.799C-16.66,80.888,-17.09,80.932,-17.514,80.932C-20.438,80.932,-23.06,78.885,-23.677,75.909C-23.677,75.909,-51.87,-60.142,-51.87,-60.142C-52.576,-63.55,-50.386,-66.884,-46.979,-67.59C-46.979,-67.59,16.765,-80.8,16.765,-80.8C17.196,-80.889,17.626,-80.932,18.05,-80.932ZM18.05,-83.932C18.05,-83.932,18.05,-83.932,18.05,-83.932C17.416,-83.932,16.779,-83.867,16.156,-83.738C16.156,-83.738,-47.588,-70.528,-47.588,-70.528C-52.609,-69.488,-55.848,-64.555,-54.807,-59.534C-54.807,-59.534,-26.614,76.517,-26.614,76.517C-25.724,80.814,-21.897,83.932,-17.514,83.932C-16.881,83.932,-16.243,83.866,-15.62,83.737C-15.62,83.737,48.124,70.528,48.124,70.528C50.556,70.024,52.647,68.603,54.011,66.526C55.374,64.449,55.848,61.966,55.343,59.534C55.343,59.534,27.151,-76.517,27.151,-76.517C26.26,-80.814,22.433,-83.932,18.05,-83.932Z" /></g><g id="i28" transform="matrix(1,0,0,1,41.151,83.851)"><path fill="#ffffff" d="M-34.544,-59.965C-35.023,-62.275,-33.538,-64.536,-31.228,-65.015C-31.228,-65.015,36.488,-79.047,36.488,-79.047C36.678,-79.086,36.866,-79.093,37.055,-79.106C35.627,-80.311,33.683,-80.877,31.712,-80.468C31.712,-80.468,-32.032,-67.259,-32.032,-67.259C-35.439,-66.553,-37.629,-63.219,-36.923,-59.811C-36.923,-59.811,-8.73,76.239,-8.73,76.239C-8.321,78.212,-7.03,79.77,-5.357,80.601C-5.419,80.423,-5.488,80.249,-5.528,80.058C-5.528,80.058,-34.544,-59.965,-34.544,-59.965Z" /></g><g id="i29" transform="matrix(1,0,0,1,56.395,84.182)"><path fill="#4eec91" d="M-6.969,69.59C-7.433,69.59,-7.849,69.266,-7.947,68.793C-8.629,65.503,-11.558,63.114,-14.913,63.114C-15.398,63.114,-15.886,63.165,-16.366,63.265C-16.435,63.278,-16.503,63.285,-16.57,63.285C-17.034,63.285,-17.45,62.96,-17.548,62.488C-17.548,62.488,-40.937,-50.38,-40.937,-50.38C-40.991,-50.64,-40.94,-50.91,-40.794,-51.132C-40.649,-51.354,-40.421,-51.509,-40.161,-51.562C-36.316,-52.359,-33.836,-56.136,-34.632,-59.981C-34.744,-60.522,-34.397,-61.052,-33.856,-61.163C-33.856,-61.163,6.706,-69.569,6.706,-69.569C6.774,-69.583,6.844,-69.59,6.911,-69.59C7.375,-69.59,7.791,-69.265,7.889,-68.793C8.571,-65.502,11.501,-63.114,14.854,-63.114C15.34,-63.114,15.828,-63.165,16.307,-63.264C16.375,-63.278,16.443,-63.285,16.51,-63.285C16.704,-63.285,16.896,-63.229,17.06,-63.121C17.282,-62.975,17.437,-62.747,17.491,-62.488C17.491,-62.488,40.88,50.381,40.88,50.381C40.991,50.922,40.644,51.451,40.103,51.564C36.258,52.361,33.778,56.137,34.575,59.982C34.686,60.523,34.34,61.052,33.799,61.164C33.799,61.164,-6.765,69.569,-6.765,69.569C-6.834,69.583,-6.902,69.59,-6.969,69.59Z" /></g><g id="i30" transform="matrix(1,0,0,1,56.366,84.182)"><path fill="#66142e" fill-rule="evenodd" d="M6.939,-68.59C7.734,-64.753,11.114,-62.114,14.883,-62.114C15.43,-62.114,15.984,-62.17,16.54,-62.285C16.54,-62.285,39.929,50.584,39.929,50.584C35.537,51.494,32.714,55.792,33.624,60.184C33.624,60.184,-6.938,68.59,-6.938,68.59C-7.733,64.754,-11.114,62.114,-14.883,62.114C-15.43,62.114,-15.983,62.17,-16.54,62.285C-16.54,62.285,-39.929,-50.583,-39.929,-50.583C-35.536,-51.493,-32.713,-55.792,-33.624,-60.185C-33.624,-60.185,6.939,-68.59,6.939,-68.59ZM6.939,-70.59C6.804,-70.59,6.668,-70.576,6.533,-70.548C6.533,-70.548,-34.029,-62.143,-34.029,-62.143C-35.111,-61.919,-35.806,-60.861,-35.582,-59.778C-35.25,-58.178,-35.561,-56.543,-36.459,-55.176C-37.357,-53.809,-38.733,-52.873,-40.334,-52.541C-40.854,-52.434,-41.309,-52.124,-41.601,-51.681C-41.892,-51.237,-41.995,-50.696,-41.887,-50.177C-41.887,-50.177,-18.498,62.691,-18.498,62.691C-18.302,63.636,-17.47,64.285,-16.541,64.285C-16.407,64.285,-16.27,64.271,-16.134,64.243C-15.721,64.158,-15.3,64.114,-14.883,64.114C-12,64.114,-9.483,66.167,-8.897,68.996C-8.701,69.94,-7.869,70.59,-6.94,70.59C-6.806,70.59,-6.669,70.576,-6.533,70.548C-6.533,70.548,34.03,62.142,34.03,62.142C35.111,61.919,35.807,60.86,35.583,59.778C34.897,56.473,37.03,53.227,40.335,52.542C40.855,52.434,41.31,52.125,41.601,51.681C41.892,51.238,41.995,50.697,41.888,50.178C41.888,50.178,18.499,-62.692,18.499,-62.692C18.303,-63.636,17.47,-64.285,16.542,-64.285C16.408,-64.285,16.271,-64.272,16.134,-64.243C15.721,-64.158,15.3,-64.114,14.883,-64.114C12.001,-64.114,9.483,-66.167,8.897,-68.996C8.79,-69.515,8.48,-69.971,8.037,-70.262C7.709,-70.478,7.326,-70.59,6.939,-70.59Z" /></g><g id="i31" transform="matrix(1,0,0,1,56.366,84.182)"><path fill="#1ebc61" d="M15.722,-3.258C17.522,5.427,11.941,13.925,3.258,15.725C-5.425,17.524,-13.921,11.942,-15.721,3.258C-17.521,-5.427,-11.941,-13.926,-3.258,-15.725C5.425,-17.524,13.922,-11.943,15.722,-3.258Z" /></g><g id="i32" transform="matrix(1,0,0,1,56.602,84.288)"><path fill="#4eec91" d="M-3.474,5.749C-5.603,5.782,-7.511,4.576,-8.356,2.003C-8.356,2.003,-10.941,2.044,-10.941,2.044C-10.941,2.044,-10.993,-1.251,-10.993,-1.251C-10.993,-1.251,-8.812,-1.285,-8.812,-1.285C-8.796,-3.111,-8.348,-4.873,-7.861,-5.782C-7.861,-5.782,-4.696,-5.055,-4.696,-5.055C-5.203,-4.02,-5.705,-2.436,-5.68,-0.807C-5.653,0.947,-4.911,1.861,-3.809,1.843C-2.76,1.827,-2.171,1.015,-1.476,-1.025C-0.544,-3.845,0.982,-5.698,3.438,-5.736C5.76,-5.772,7.665,-4.236,8.349,-1.553C8.349,-1.553,10.942,-1.592,10.942,-1.592C10.942,-1.592,10.993,1.702,10.993,1.702C10.993,1.702,8.582,1.739,8.582,1.739C8.484,3.069,8.177,4.102,7.837,4.894C7.837,4.894,4.741,4.092,4.741,4.092C5.057,3.412,5.513,2.199,5.487,0.548C5.461,-1.106,4.7,-1.896,3.82,-1.882C2.745,-1.865,2.285,-0.904,1.491,1.286C0.436,4.286,-1.096,5.712,-3.474,5.749Z" /></g><g id="i33" transform="matrix(1,0,0,1,45.909,33.719)"><path fill="#1ebc61" d="M0.072,4.577C-2.456,4.616,-4.538,2.6,-4.577,0.072C-4.617,-2.456,-2.6,-4.537,-0.072,-4.576C2.456,-4.616,4.537,-2.598,4.577,-0.07C4.616,2.457,2.6,4.538,0.072,4.577Z" /></g></g></g></g></g><g id="i40"><g transform="translate(216.998,141.959)"><animateTransform repeatCount="indefinite" type="translate" attributeName="transform" dur="4s" begin="0s" calcMode="spline" values="216.998 141.959; 235.498 118.459; 235.498 118.459; 216.998 141.959; 216.998 141.959" keyTimes="0; 0.167813; 0.579167; 0.704167; 1" keySplines="0.317 0 0.146 1; 0 0 1 1; 0.317 0 0.146 1; 0 0 1 1" fill="freeze" /><g transform="rotate(0)"><animateTransform repeatCount="indefinite" type="rotate" attributeName="transform" dur="4s" begin="0s" calcMode="spline" values="0; 8; 8; 0; 0" keyTimes="0; 0.125; 0.579167; 0.704167; 1" keySplines="0.526 0 0 1; 0.386 0 0.464 1; 0.526 0 0 1; 0 0 1 1" fill="freeze" /><g transform="scale(1,1) translate(-57.865,-84.578)"><g id="i26" transform="matrix(1,0,0,1,57.865,84.579)"><path fill="#1ebc61" d="M16.026,82.829C15.434,82.829,14.839,82.761,14.258,82.626C14.258,82.626,-49.158,67.925,-49.158,67.925C-53.348,66.953,-55.966,62.755,-54.995,58.564C-54.995,58.564,-23.618,-76.788,-23.618,-76.788C-22.794,-80.344,-19.671,-82.829,-16.024,-82.829C-15.433,-82.829,-14.838,-82.761,-14.257,-82.627C-14.257,-82.627,49.159,-67.925,49.159,-67.925C53.348,-66.954,55.966,-62.754,54.996,-58.564C54.996,-58.564,23.618,76.789,23.618,76.789C22.795,80.346,19.672,82.829,16.026,82.829Z" /></g><g id="i27" transform="matrix(1,0,0,1,57.865,84.578)"><path fill="#66142e" fill-rule="evenodd" d="M-16.025,-81.329C-15.554,-81.329,-15.075,-81.276,-14.597,-81.165C-14.597,-81.165,48.82,-66.463,48.82,-66.463C52.209,-65.677,54.32,-62.292,53.535,-58.902C53.535,-58.902,22.158,76.45,22.158,76.45C21.482,79.361,18.891,81.329,16.025,81.329C15.554,81.329,15.075,81.276,14.597,81.165C14.597,81.165,-48.819,66.464,-48.819,66.464C-52.21,65.678,-54.32,62.293,-53.535,58.903C-53.535,58.903,-22.157,-76.449,-22.157,-76.449C-21.483,-79.36,-18.891,-81.329,-16.025,-81.329ZM-16.025,-84.329C-20.374,-84.329,-24.097,-81.367,-25.08,-77.127C-25.08,-77.127,-56.457,58.226,-56.457,58.226C-57.615,63.222,-54.493,68.228,-49.497,69.387C-49.497,69.387,13.919,84.088,13.919,84.088C14.611,84.248,15.319,84.329,16.025,84.329C20.373,84.329,24.097,81.368,25.08,77.128C25.08,77.128,56.457,-58.225,56.457,-58.225C57.615,-63.222,54.493,-68.226,49.497,-69.386C49.497,-69.386,-13.919,-84.087,-13.919,-84.087C-14.611,-84.247,-15.319,-84.329,-16.025,-84.329Z" /></g><g id="i28" transform="matrix(1,0,0,1,57.566,76.052)"><path fill="#ffffff" d="M-19.634,-67.066C-19.101,-69.364,-16.806,-70.795,-14.508,-70.263C-14.508,-70.263,52.861,-54.645,52.861,-54.645C53.049,-54.602,53.223,-54.529,53.4,-54.462C52.608,-56.154,51.08,-57.482,49.118,-57.936C49.118,-57.936,-14.298,-72.637,-14.298,-72.637C-17.688,-73.423,-21.073,-71.313,-21.859,-67.922C-21.859,-67.922,-53.236,67.429,-53.236,67.429C-53.691,69.391,-53.171,71.347,-52,72.803C-51.982,72.615,-51.971,72.428,-51.927,72.238C-51.927,72.238,-19.634,-67.066,-19.634,-67.066Z" /></g><g id="i29" transform="matrix(1,0,0,1,57.897,84.578)"><path fill="#4eec91" d="M5.296,69.734C5.221,69.734,5.146,69.726,5.069,69.709C5.069,69.709,-35.284,60.354,-35.284,60.354C-35.822,60.229,-36.157,59.692,-36.033,59.154C-35.146,55.328,-37.537,51.494,-41.362,50.607C-41.621,50.547,-41.845,50.387,-41.985,50.162C-42.125,49.937,-42.171,49.666,-42.111,49.407C-42.111,49.407,-16.08,-62.882,-16.08,-62.882C-16.02,-63.141,-15.86,-63.364,-15.636,-63.505C-15.475,-63.604,-15.292,-63.656,-15.106,-63.656C-15.031,-63.656,-14.955,-63.648,-14.881,-63.63C-14.349,-63.507,-13.805,-63.444,-13.265,-63.444C-9.937,-63.444,-7.087,-65.712,-6.334,-68.96C-6.226,-69.422,-5.815,-69.734,-5.36,-69.734C-5.285,-69.734,-5.21,-69.725,-5.134,-69.708C-5.134,-69.708,35.22,-60.353,35.22,-60.353C35.758,-60.229,36.093,-59.691,35.969,-59.154C35.082,-55.328,37.473,-51.494,41.298,-50.607C41.836,-50.482,42.171,-49.945,42.047,-49.407C42.047,-49.407,16.017,62.881,16.017,62.881C15.909,63.343,15.498,63.656,15.043,63.656C14.968,63.656,14.893,63.648,14.817,63.63C14.284,63.506,13.741,63.444,13.201,63.444C9.873,63.444,7.023,65.713,6.27,68.96C6.162,69.422,5.751,69.734,5.296,69.734Z" /></g><g id="i30" transform="matrix(1,0,0,1,57.8,84.579)"><path fill="#66142e" fill-rule="evenodd" d="M-5.262,-68.734C-5.262,-68.734,35.092,-59.38,35.092,-59.38C34.079,-55.009,36.801,-50.646,41.17,-49.633C41.17,-49.633,15.139,62.656,15.139,62.656C14.523,62.513,13.905,62.444,13.298,62.444C9.604,62.444,6.263,64.981,5.393,68.734C5.393,68.734,-34.962,59.379,-34.962,59.379C-33.949,55.009,-36.67,50.646,-41.04,49.632C-41.04,49.632,-15.008,-62.656,-15.008,-62.656C-14.391,-62.513,-13.775,-62.444,-13.168,-62.444C-9.474,-62.444,-6.132,-64.981,-5.262,-68.734ZM-5.262,-70.734C-5.633,-70.734,-6.001,-70.63,-6.321,-70.431C-6.771,-70.15,-7.092,-69.703,-7.211,-69.185C-7.858,-66.394,-10.307,-64.444,-13.167,-64.444C-13.632,-64.444,-14.1,-64.499,-14.557,-64.604C-14.709,-64.639,-14.86,-64.656,-15.01,-64.656C-15.92,-64.656,-16.742,-64.032,-16.956,-63.108C-16.956,-63.108,-42.988,49.18,-42.988,49.18C-43.238,50.256,-42.568,51.33,-41.492,51.58C-38.203,52.343,-36.148,55.639,-36.91,58.928C-37.159,60.003,-36.49,61.078,-35.413,61.328C-35.413,61.328,4.942,70.682,4.942,70.682C5.091,70.717,5.242,70.734,5.393,70.734C5.764,70.734,6.132,70.63,6.452,70.431C6.902,70.15,7.222,69.702,7.342,69.185C7.988,66.394,10.438,64.444,13.298,64.444C13.762,64.444,14.23,64.498,14.688,64.604C14.84,64.639,14.992,64.656,15.141,64.656C16.051,64.656,16.873,64.032,17.088,63.108C17.088,63.108,43.118,-49.181,43.118,-49.181C43.238,-49.699,43.148,-50.242,42.867,-50.692C42.587,-51.142,42.138,-51.462,41.622,-51.582C38.334,-52.343,36.279,-55.639,37.04,-58.928C37.29,-60.004,36.62,-61.079,35.544,-61.328C35.544,-61.328,-4.811,-70.682,-4.811,-70.682C-4.961,-70.717,-5.111,-70.734,-5.262,-70.734Z" /></g><g id="i31" transform="matrix(1,0,0,1,57.865,84.579)"><path fill="#1ebc61" d="M15.641,3.625C13.638,12.265,5.012,17.646,-3.626,15.643C-12.265,13.641,-17.644,5.013,-15.641,-3.627C-13.638,-12.267,-5.011,-17.647,3.627,-15.645C12.265,-13.642,17.644,-5.015,15.641,3.625Z" /></g><g id="i32" transform="matrix(1,0,0,1,57.94,84.365)"><path fill="#4eec91" d="M-5.468,4.174C-7.415,3.312,-8.642,1.419,-8.333,-1.272C-8.333,-1.272,-10.697,-2.318,-10.697,-2.318C-10.697,-2.318,-9.364,-5.331,-9.364,-5.331C-9.364,-5.331,-7.369,-4.448,-7.369,-4.448C-6.59,-6.099,-5.446,-7.512,-4.623,-8.134C-4.623,-8.134,-2.053,-6.149,-2.053,-6.149C-2.947,-5.421,-4.067,-4.192,-4.726,-2.703C-5.436,-1.098,-5.145,0.041,-4.137,0.487C-3.177,0.912,-2.303,0.422,-0.817,-1.139C1.21,-3.31,3.372,-4.353,5.618,-3.36C7.742,-2.42,8.828,-0.227,8.325,2.496C8.325,2.496,10.697,3.545,10.697,3.545C10.697,3.545,9.364,6.558,9.364,6.558C9.364,6.558,7.159,5.582,7.159,5.582C6.513,6.748,5.802,7.558,5.161,8.134C5.161,8.134,2.686,6.11,2.686,6.11C3.257,5.625,4.18,4.714,4.848,3.204C5.517,1.691,5.156,0.655,4.352,0.299C3.368,-0.136,2.548,0.544,0.91,2.201C-1.304,4.483,-3.293,5.136,-5.468,4.174Z" /></g><g id="i33" transform="matrix(1,0,0,1,69.503,34.375)"><path fill="#1ebc61" d="M-1.852,4.186C-4.164,3.163,-5.209,0.46,-4.186,-1.852C-3.163,-4.164,-0.46,-5.209,1.852,-4.187C4.164,-3.164,5.209,-0.46,4.186,1.852C3.164,4.164,0.46,5.209,-1.852,4.186Z" /></g></g></g></g></g><g id="i37"><g transform="translate(198,200)"><animateTransform repeatCount="indefinite" type="translate" attributeName="transform" dur="4s" begin="0s" calcMode="spline" values="198 200; 197 210; 197 210; 198 200; 198 200" keyTimes="0; 0.125; 0.579166; 0.726961; 1" keySplines="0.37 0 0.071 1; 0 0 1 1; 0.108 0 0.134 1; 0 0 1 1" fill="freeze" /><g transform="rotate(0)"><animateTransform repeatCount="indefinite" type="rotate" attributeName="transform" dur="4s" begin="0s" calcMode="spline" values="0; 4; 4; 0; 0" keyTimes="0; 0.125; 0.579167; 0.704167; 1" keySplines="0.333 0 0.667 1; 0.333 0 0.667 1; 0.333 0 0.667 1; 0 0 1 1" fill="freeze" /><g transform="scale(1,1) translate(-50,-50)"><g transform="matrix(1,0,0,1,-39.002,-13.039)" id="i43"><g id="i44" transform="matrix(1,0,0,1,119.958,67.918)"><path fill="#e67e22" d="M52.915,-56.192C52.828,-56.372,52.753,-56.558,52.656,-56.732C51.486,-53.551,48.047,-52.879,45.044,-52.879C45.044,-52.879,-53.956,-51.879,-53.956,-51.879C-53.956,-51.879,-52.473,-51.581,-52.473,-51.581C-52.473,-51.581,34.66,-32.342,34.66,-32.342C36.706,-31.861,38.578,-30.831,40.076,-29.362C42.31,-27.173,43.541,-24.248,43.541,-21.126C43.541,-21.126,43.541,56.732,43.541,56.732C43.541,56.732,43.794,56.729,43.794,56.729C44.737,56.719,45.663,56.591,46.567,56.369C46.531,56.295,46.497,56.221,46.473,56.141C46.472,56.139,46.472,56.136,46.471,56.134C46.243,55.381,46.634,54.58,47.369,54.299C50.211,53.209,52.408,50.932,53.397,48.052C53.768,46.979,53.956,45.857,53.956,44.714C53.956,44.714,53.956,-51.741,53.956,-51.741C53.956,-53.339,53.57,-54.842,52.915,-56.192Z" /></g><g id="i45" transform="matrix(1,0,0,1,167.062,68.061)"><path fill="#66142e" fill-opacity="0.4" d="M0.266,54.156C3.108,53.066,5.305,50.789,6.294,47.909C6.665,46.836,6.853,45.714,6.853,44.571C6.853,44.571,6.853,-51.884,6.853,-51.884C6.853,-53.483,6.466,-54.986,5.811,-56.335C4.97,-53.242,0.861,-52.442,-4.187,-52.299C-4.187,-52.299,-6.852,-50.799,-6.852,-50.799C-6.852,-50.799,-6.852,-29.684,-6.852,-29.684C-4.647,-27.524,-3.312,-24.524,-3.312,-21.269C-3.312,-21.269,-3.312,56.336,-3.312,56.336C-2.387,56.327,-1.493,56.201,-0.632,55.991C-0.86,55.238,-0.469,54.437,0.266,54.156Z" /></g><g id="i46" transform="matrix(1,0,0,1,119.804,11.707)"><path fill="#66142e" d="M42.342,5.564C42.039,5.564,41.731,5.562,41.417,5.556C41.417,5.556,-53.77,5.556,-53.77,5.556C-54.598,5.556,-55.27,4.885,-55.27,4.056C-55.27,3.228,-54.598,2.556,-53.77,2.556C-53.77,2.556,41.445,2.556,41.445,2.556C49.197,2.7,51.06,0.898,51.5,0.115C52.047,-0.862,51.474,-2.145,50.897,-3.047C50.451,-3.745,50.656,-4.673,51.354,-5.119C52.051,-5.565,52.978,-5.361,53.424,-4.663C55.269,-1.775,54.82,0.326,54.117,1.58C52.634,4.226,48.675,5.564,42.342,5.564Z" /></g><g id="i47" transform="matrix(1,0,0,1,78.25,82.112)"><path fill="#e67e22" d="M64.752,80.313C63.943,80.313,63.126,80.23,62.324,80.065C62.21,80.045,62.088,80.019,61.966,79.987C61.966,79.987,-66.933,49.658,-66.933,49.658C-69.847,48.975,-72.429,47.281,-74.217,44.88C-74.217,44.88,-74.298,44.778,-74.298,44.778C-75.902,42.584,-76.75,39.984,-76.75,37.26C-76.75,37.26,-76.75,-73.935,-76.75,-73.935C-76.75,-76.215,-76.082,-78.42,-74.819,-80.313C-74.819,-80.313,-74.381,-80.076,-74.381,-80.076C-75.253,-78.041,-75.279,-76.104,-74.455,-74.476C-73.473,-72.535,-71.342,-71.096,-68.454,-70.423C-68.454,-70.423,67.475,-39.228,67.475,-39.228C72.936,-37.945,76.75,-33.133,76.75,-27.525C76.75,-27.525,76.75,68.285,76.75,68.285C76.75,74.917,71.367,80.313,64.752,80.313Z" /></g><g id="i48" transform="matrix(1,0,0,1,77.601,86.981)"><path fill="#ffffff" fill-rule="evenodd" d="M63.236,67.789C63.16,67.789,63.083,67.78,63.006,67.762C63.006,67.762,56.707,66.28,56.707,66.28C56.169,66.153,55.836,65.615,55.962,65.077C56.089,64.54,56.628,64.207,57.165,64.333C57.165,64.333,63.464,65.815,63.464,65.815C64.002,65.942,64.335,66.48,64.209,67.018C64.1,67.478,63.69,67.789,63.236,67.789ZM68.806,66.014C68.666,66.014,68.523,65.985,68.387,65.922C67.886,65.691,67.666,65.096,67.898,64.595C68.064,64.235,68.148,63.838,68.148,63.416C68.148,63.416,68.148,58.593,68.148,58.593C68.148,58.041,68.596,57.593,69.148,57.593C69.701,57.593,70.148,58.041,70.148,58.593C70.148,58.593,70.148,63.416,70.148,63.416C70.148,64.13,70.003,64.809,69.714,65.434C69.545,65.799,69.184,66.014,68.806,66.014ZM50.637,64.824C50.561,64.824,50.484,64.816,50.407,64.798C50.407,64.798,44.108,63.316,44.108,63.316C43.57,63.189,43.237,62.651,43.364,62.113C43.49,61.575,44.029,61.242,44.566,61.368C44.566,61.368,50.865,62.851,50.865,62.851C51.403,62.978,51.736,63.516,51.61,64.053C51.501,64.514,51.091,64.824,50.637,64.824ZM38.038,61.86C37.962,61.86,37.885,61.852,37.808,61.834C37.808,61.834,31.509,60.351,31.509,60.351C30.971,60.224,30.638,59.686,30.765,59.149C30.891,58.611,31.432,58.277,31.967,58.404C31.967,58.404,38.266,59.886,38.266,59.886C38.804,60.013,39.137,60.551,39.011,61.089C38.902,61.549,38.492,61.86,38.038,61.86ZM25.44,58.896C25.364,58.896,25.287,58.887,25.21,58.869C25.21,58.869,18.91,57.387,18.91,57.387C18.373,57.26,18.039,56.722,18.166,56.184C18.292,55.647,18.83,55.314,19.368,55.44C19.368,55.44,25.668,56.922,25.668,56.922C26.205,57.049,26.539,57.587,26.412,58.125C26.304,58.585,25.893,58.896,25.44,58.896ZM12.841,55.931C12.765,55.931,12.688,55.923,12.611,55.905C12.611,55.905,6.312,54.422,6.312,54.422C5.774,54.296,5.441,53.757,5.567,53.22C5.694,52.683,6.231,52.35,6.77,52.475C6.77,52.475,13.069,53.958,13.069,53.958C13.606,54.085,13.94,54.623,13.813,55.16C13.705,55.621,13.294,55.931,12.841,55.931ZM69.148,53.122C68.596,53.122,68.148,52.674,68.148,52.122C68.148,52.122,68.148,45.651,68.148,45.651C68.148,45.098,68.596,44.651,69.148,44.651C69.701,44.651,70.148,45.098,70.148,45.651C70.148,45.651,70.148,52.122,70.148,52.122C70.148,52.674,69.701,53.122,69.148,53.122ZM0.242,52.967C0.166,52.967,0.089,52.959,0.012,52.941C0.012,52.941,-6.288,51.458,-6.288,51.458C-6.826,51.331,-7.159,50.793,-7.033,50.255C-6.906,49.718,-6.367,49.384,-5.829,49.511C-5.829,49.511,0.47,50.993,0.47,50.993C1.008,51.12,1.341,51.658,1.214,52.196C1.106,52.656,0.695,52.967,0.242,52.967ZM-12.357,50.003C-12.433,50.003,-12.51,49.994,-12.587,49.976C-12.587,49.976,-18.887,48.494,-18.887,48.494C-19.425,48.367,-19.758,47.829,-19.631,47.291C-19.505,46.754,-18.966,46.42,-18.428,46.547C-18.428,46.547,-12.13,48.029,-12.13,48.029C-11.592,48.156,-11.259,48.694,-11.385,49.232C-11.494,49.692,-11.903,50.003,-12.357,50.003ZM-24.956,47.038C-25.031,47.038,-25.11,47.03,-25.186,47.012C-25.186,47.012,-31.486,45.529,-31.486,45.529C-32.023,45.402,-32.357,44.864,-32.23,44.327C-32.104,43.789,-31.563,43.457,-31.027,43.582C-31.027,43.582,-24.728,45.065,-24.728,45.065C-24.191,45.192,-23.858,45.73,-23.984,46.267C-24.092,46.728,-24.502,47.038,-24.956,47.038ZM-37.555,44.074C-37.631,44.074,-37.708,44.066,-37.785,44.047C-37.785,44.047,-44.085,42.565,-44.085,42.565C-44.622,42.438,-44.956,41.9,-44.829,41.362C-44.703,40.825,-44.163,40.492,-43.626,40.618C-43.626,40.618,-37.327,42.1,-37.327,42.1C-36.79,42.227,-36.456,42.765,-36.583,43.303C-36.691,43.763,-37.102,44.074,-37.555,44.074ZM-50.154,41.109C-50.23,41.109,-50.306,41.101,-50.383,41.083C-50.383,41.083,-56.682,39.601,-56.682,39.601C-57.22,39.474,-57.554,38.936,-57.428,38.398C-57.301,37.86,-56.761,37.527,-56.225,37.653C-56.225,37.653,-49.926,39.136,-49.926,39.136C-49.388,39.263,-49.055,39.801,-49.182,40.339C-49.29,40.799,-49.701,41.109,-50.154,41.109ZM69.148,40.179C68.596,40.179,68.148,39.731,68.148,39.179C68.148,39.179,68.148,32.708,68.148,32.708C68.148,32.155,68.596,31.708,69.148,31.708C69.701,31.708,70.148,32.155,70.148,32.708C70.148,32.708,70.148,39.179,70.148,39.179C70.148,39.731,69.701,40.179,69.148,40.179ZM-62.753,38.145C-62.829,38.145,-62.905,38.137,-62.982,38.118C-62.982,38.118,-64.623,37.732,-64.623,37.732C-66.414,37.398,-67.978,36.988,-69.358,36.491C-69.878,36.304,-70.149,35.732,-69.962,35.212C-69.775,34.692,-69.2,34.424,-68.681,34.609C-67.402,35.07,-65.939,35.452,-64.209,35.776C-64.209,35.776,-62.524,36.172,-62.524,36.172C-61.986,36.298,-61.653,36.837,-61.779,37.374C-61.888,37.835,-62.3,38.145,-62.753,38.145ZM69.148,27.236C68.596,27.236,68.148,26.788,68.148,26.236C68.148,26.236,68.148,19.765,68.148,19.765C68.148,19.213,68.596,18.765,69.148,18.765C69.701,18.765,70.148,19.213,70.148,19.765C70.148,19.765,70.148,26.236,70.148,26.236C70.148,26.788,69.701,27.236,69.148,27.236ZM69.148,14.293C68.596,14.293,68.148,13.845,68.148,13.293C68.148,13.293,68.148,6.822,68.148,6.822C68.148,6.27,68.596,5.822,69.148,5.822C69.701,5.822,70.148,6.27,70.148,6.822C70.148,6.822,70.148,13.293,70.148,13.293C70.148,13.845,69.701,14.293,69.148,14.293ZM69.148,1.35C68.596,1.35,68.148,0.902,68.148,0.35C68.148,0.35,68.148,-6.121,68.148,-6.121C68.148,-6.673,68.596,-7.121,69.148,-7.121C69.701,-7.121,70.148,-6.673,70.148,-6.121C70.148,-6.121,70.148,0.35,70.148,0.35C70.148,0.902,69.701,1.35,69.148,1.35ZM69.148,-11.592C68.596,-11.592,68.148,-12.04,68.148,-12.592C68.148,-12.592,68.148,-19.064,68.148,-19.064C68.148,-19.616,68.596,-20.064,69.148,-20.064C69.701,-20.064,70.148,-19.616,70.148,-19.064C70.148,-19.064,70.148,-12.592,70.148,-12.592C70.148,-12.04,69.701,-11.592,69.148,-11.592ZM69.148,-24.535C68.596,-24.535,68.148,-24.983,68.148,-25.535C68.148,-25.535,68.148,-32.007,68.148,-32.007C68.148,-32.559,68.596,-33.007,69.148,-33.007C69.701,-33.007,70.148,-32.559,70.148,-32.007C70.148,-32.007,70.148,-25.535,70.148,-25.535C70.148,-24.983,69.701,-24.535,69.148,-24.535ZM65.245,-35.294C65.171,-35.294,65.096,-35.302,65.02,-35.32C65.02,-35.32,58.713,-36.767,58.713,-36.767C58.175,-36.891,57.838,-37.427,57.962,-37.965C58.086,-38.504,58.623,-38.838,59.16,-38.716C59.16,-38.716,65.468,-37.269,65.468,-37.269C66.006,-37.145,66.342,-36.609,66.219,-36.071C66.112,-35.608,65.7,-35.294,65.245,-35.294ZM52.63,-38.189C52.556,-38.189,52.481,-38.197,52.405,-38.215C52.405,-38.215,46.098,-39.662,46.098,-39.662C45.56,-39.786,45.223,-40.323,45.347,-40.861C45.471,-41.399,46.009,-41.734,46.545,-41.612C46.545,-41.612,52.853,-40.164,52.853,-40.164C53.391,-40.04,53.727,-39.504,53.604,-38.966C53.497,-38.503,53.086,-38.189,52.63,-38.189ZM40.015,-41.084C39.941,-41.084,39.866,-41.092,39.791,-41.11C39.791,-41.11,33.483,-42.558,33.483,-42.558C32.945,-42.681,32.608,-43.218,32.732,-43.756C32.856,-44.294,33.394,-44.629,33.93,-44.507C33.93,-44.507,40.238,-43.059,40.238,-43.059C40.776,-42.935,41.112,-42.399,40.989,-41.861C40.883,-41.398,40.471,-41.084,40.015,-41.084ZM27.4,-43.979C27.326,-43.979,27.251,-43.988,27.176,-44.005C27.176,-44.005,20.868,-45.453,20.868,-45.453C20.33,-45.576,19.994,-46.113,20.117,-46.651C20.241,-47.189,20.778,-47.523,21.315,-47.402C21.315,-47.402,27.623,-45.954,27.623,-45.954C28.161,-45.83,28.497,-45.294,28.374,-44.756C28.268,-44.293,27.856,-43.979,27.4,-43.979ZM14.785,-46.875C14.711,-46.875,14.636,-46.883,14.561,-46.9C14.561,-46.9,8.253,-48.348,8.253,-48.348C7.715,-48.471,7.379,-49.008,7.502,-49.546C7.626,-50.084,8.165,-50.418,8.7,-50.297C8.7,-50.297,15.008,-48.849,15.008,-48.849C15.546,-48.726,15.883,-48.189,15.759,-47.651C15.653,-47.188,15.241,-46.875,14.785,-46.875ZM2.17,-49.77C2.096,-49.77,2.021,-49.778,1.946,-49.795C1.946,-49.795,-4.363,-51.243,-4.363,-51.243C-4.901,-51.366,-5.237,-51.903,-5.113,-52.441C-4.99,-52.979,-4.452,-53.312,-3.915,-53.192C-3.915,-53.192,2.393,-51.744,2.393,-51.744C2.931,-51.621,3.268,-51.084,3.144,-50.546C3.038,-50.083,2.626,-49.77,2.17,-49.77ZM-10.445,-52.665C-10.52,-52.665,-10.594,-52.673,-10.669,-52.69C-10.669,-52.69,-16.978,-54.138,-16.978,-54.138C-17.516,-54.261,-17.852,-54.798,-17.728,-55.336C-17.605,-55.874,-17.066,-56.209,-16.529,-56.087C-16.529,-56.087,-10.223,-54.64,-10.223,-54.64C-9.684,-54.516,-9.347,-53.979,-9.471,-53.441C-9.577,-52.978,-9.99,-52.665,-10.445,-52.665ZM-23.059,-55.56C-23.133,-55.56,-23.21,-55.568,-23.285,-55.585C-23.285,-55.585,-29.592,-57.033,-29.592,-57.033C-30.131,-57.157,-30.466,-57.693,-30.342,-58.231C-30.219,-58.769,-29.681,-59.103,-29.145,-58.982C-29.145,-58.982,-22.837,-57.535,-22.837,-57.535C-22.298,-57.411,-21.963,-56.874,-22.087,-56.336C-22.193,-55.873,-22.604,-55.56,-23.059,-55.56ZM-35.674,-58.455C-35.748,-58.455,-35.825,-58.463,-35.9,-58.48C-35.9,-58.48,-42.206,-59.928,-42.206,-59.928C-42.745,-60.052,-43.082,-60.588,-42.958,-61.126C-42.834,-61.664,-42.297,-61.998,-41.76,-61.877C-41.76,-61.877,-35.452,-60.43,-35.452,-60.43C-34.913,-60.306,-34.578,-59.769,-34.702,-59.231C-34.808,-58.768,-35.219,-58.455,-35.674,-58.455ZM-48.29,-61.35C-48.364,-61.35,-48.438,-61.358,-48.514,-61.375C-48.514,-61.375,-54.822,-62.823,-54.822,-62.823C-55.36,-62.947,-55.697,-63.483,-55.573,-64.021C-55.449,-64.559,-54.91,-64.894,-54.374,-64.772C-54.374,-64.772,-48.066,-63.325,-48.066,-63.325C-47.528,-63.201,-47.193,-62.664,-47.316,-62.126C-47.423,-61.663,-47.834,-61.35,-48.29,-61.35ZM-60.904,-64.245C-60.978,-64.245,-61.054,-64.253,-61.13,-64.27C-61.13,-64.27,-67.436,-65.718,-67.436,-65.718C-67.974,-65.842,-68.311,-66.378,-68.188,-66.916C-68.064,-67.454,-67.526,-67.789,-66.99,-67.667C-66.99,-67.667,-60.681,-66.22,-60.681,-66.22C-60.143,-66.096,-59.807,-65.559,-59.93,-65.021C-60.037,-64.558,-60.448,-64.245,-60.904,-64.245Z" /></g><g id="i26" transform="matrix(1,0,0,1,78.347,32.792)"><path fill="#ffffff" d="M76.402,21.795C76.402,21.795,76.402,25.795,76.402,25.795C76.402,20.33,72.642,15.585,67.322,14.335C67.322,14.335,-68.562,-16.85,-68.562,-16.85C-68.577,-16.855,-68.592,-16.855,-68.607,-16.86C-73.487,-17.995,-76.403,-21.34,-75.088,-25.795C-74.268,-23.375,-71.882,-21.62,-68.607,-20.86C-68.592,-20.855,-68.577,-20.855,-68.562,-20.85C-68.562,-20.85,67.322,10.335,67.322,10.335C72.642,11.585,76.402,16.33,76.402,21.795Z" /></g><g id="i27" transform="matrix(1,0,0,1,80.712,110.197)"><path fill="#66142e" fill-opacity="0.3" d="M70.038,-47.98C70.038,-47.98,70.038,40.2,70.038,40.2C70.038,44.49,66.563,47.98,62.293,47.98C61.768,47.98,61.238,47.925,60.718,47.815C60.718,47.815,60.598,47.795,60.598,47.795C60.598,47.795,-68.422,17.435,-68.422,17.435C-68.982,17.305,-69.522,17.115,-70.037,16.875C-14.752,18.75,40.403,-3.75,70.038,-47.98Z" /></g><g id="i28" transform="matrix(1,0,0,1,3.037,17.128)"><path fill="#ffffff" d="M1.254,2.058C1.086,2.058,0.915,2.016,0.758,1.926C-0.315,1.311,-1.224,0.593,-2.021,-0.27C-2.396,-0.676,-2.371,-1.309,-1.965,-1.683C-1.559,-2.058,-0.928,-2.033,-0.553,-1.628C0.104,-0.916,0.858,-0.321,1.751,0.19C2.23,0.465,2.396,1.076,2.122,1.555C1.937,1.877,1.601,2.058,1.254,2.058Z" /></g><g id="i29" transform="matrix(1,0,0,1,2.48,117.569)"><path fill="#ffffff" d="M0.708,2.494C0.418,2.494,0.13,2.368,-0.068,2.126C-0.86,1.153,-1.41,0.049,-1.702,-1.154C-1.832,-1.691,-1.503,-2.232,-0.966,-2.362C-0.429,-2.494,0.111,-2.162,0.242,-1.626C0.463,-0.714,0.88,0.123,1.483,0.862C1.832,1.29,1.767,1.92,1.339,2.269C1.154,2.42,0.93,2.494,0.708,2.494Z" /></g><g id="i30" transform="matrix(1,0,0,1,78.25,81.962)"><path fill="#66142e" fill-rule="evenodd" d="M64.749,81.712C63.859,81.712,62.964,81.622,62.074,81.44C61.961,81.421,61.804,81.387,61.648,81.346C61.648,81.346,-67.219,51.025,-67.219,51.025C-73.566,49.534,-78,43.936,-78,37.41C-78,37.41,-78,-73.785,-78,-73.785C-78,-76.312,-77.259,-78.758,-75.858,-80.858C-75.427,-81.502,-74.576,-81.712,-73.895,-81.344C-73.214,-80.974,-72.926,-80.146,-73.231,-79.434C-73.964,-77.725,-74,-76.196,-73.339,-74.89C-72.528,-73.286,-70.694,-72.079,-68.175,-71.492C-68.16,-71.489,-68.145,-71.485,-68.13,-71.482C-68.13,-71.482,67.755,-40.297,67.755,-40.297C73.79,-38.879,78,-33.566,78,-27.375C78,-27.375,78,68.435,78,68.435C78,72.44,76.22,76.188,73.118,78.719C70.719,80.675,67.771,81.712,64.749,81.712ZM-75,-72.014C-75,-72.014,-75,37.41,-75,37.41C-75,42.536,-71.518,46.934,-66.532,48.105C-66.532,48.105,62.373,78.435,62.373,78.435C62.485,78.464,62.559,78.48,62.632,78.493C65.704,79.122,68.819,78.355,71.221,76.394C73.623,74.435,75,71.534,75,68.435C75,68.435,75,-27.375,75,-27.375C75,-32.166,71.742,-36.279,67.077,-37.374C67.077,-37.374,-68.801,-68.558,-68.801,-68.558C-68.816,-68.561,-68.833,-68.565,-68.85,-68.569C-71.488,-69.183,-73.611,-70.382,-75,-72.014Z" /></g><g id="i31" transform="matrix(1,0,0,1,83.452,82.656)"><path fill="#d3623b" d="M-80.103,-74.794C-79.053,-72.719,-76.804,-71.187,-73.791,-70.486C-73.791,-70.486,62.16,-39.285,62.16,-39.285C65.499,-38.501,68.293,-36.292,69.829,-33.227C70.626,-31.637,71.047,-29.854,71.047,-28.068C71.047,-28.068,71.047,67.741,71.047,67.741C71.047,74.098,65.89,79.269,59.55,79.269C58.775,79.269,57.992,79.189,57.223,79.031C57.223,79.031,57.117,79.52,57.117,79.52C59.085,79.969,61.026,80.196,62.886,80.196C68.192,80.196,72.676,78.404,75.854,75.015C79.34,71.297,80.963,65.92,80.547,59.481C80.547,59.481,80.547,-35.863,80.547,-35.863C80.547,-37.412,80.257,-38.916,79.684,-40.331C78.228,-43.966,75.086,-46.67,71.276,-47.567C71.276,-47.567,-66.576,-78.004,-66.576,-78.004C-66.576,-78.004,-64.11,-78.004,-64.11,-78.004C-64.11,-78.004,-80.277,-80.196,-80.277,-80.196C-80.963,-78.246,-80.911,-76.39,-80.103,-74.794Z" /></g><g id="i32" transform="matrix(1,0,0,1,152.219,101.693)"><path fill="#66142e" fill-opacity="0.5" d="M11.531,40.444C12.521,55.814,1.771,63.284,-11.594,60.239C-4.329,61.729,2.531,56.174,2.531,48.704C2.531,48.704,2.531,-47.106,2.531,-47.106C2.531,-48.986,2.086,-50.781,1.286,-52.376C0.196,-59.931,5.836,-63.116,10.686,-59.276C11.236,-57.916,11.531,-56.436,11.531,-54.901C11.531,-54.901,11.531,40.444,11.531,40.444Z" /></g><g id="i33" transform="matrix(1,0,0,1,83.458,83.198)"><path fill="#66142e" d="M-70.364,-78.959C-70.447,-78.198,-69.944,-77.496,-69.196,-77.331C-69.196,-77.331,70.874,-46.406,70.874,-46.406C75.536,-45.31,78.792,-41.198,78.792,-36.406C78.792,-36.406,78.792,58.939,78.792,58.939C78.792,58.972,78.793,59.004,78.796,59.036C79.225,65.706,77.382,70.995,73.466,74.331C71.983,75.595,70.252,76.529,68.329,77.127C71.173,74.606,72.792,71.02,72.792,67.199C72.792,67.199,72.792,-28.611,72.792,-28.611C72.792,-34.803,68.583,-40.115,62.548,-41.533C62.548,-41.533,-73.337,-72.719,-73.337,-72.719C-73.352,-72.722,-73.367,-72.726,-73.382,-72.729C-75.901,-73.316,-77.735,-74.522,-78.547,-76.127C-79.186,-77.389,-79.171,-78.857,-78.509,-80.497C-78.509,-80.497,-81.552,-80.911,-81.552,-80.911C-82.265,-78.721,-82.156,-76.614,-81.224,-74.771C-80.004,-72.36,-77.459,-70.598,-74.058,-69.806C-74.04,-69.802,-74.023,-69.798,-74.008,-69.795C-74.008,-69.795,61.869,-38.611,61.869,-38.611C66.534,-37.516,69.792,-33.403,69.792,-28.611C69.792,-28.611,69.792,67.199,69.792,67.199C69.792,70.299,68.415,73.199,66.013,75.158C63.611,77.119,60.498,77.888,57.469,77.266C56.664,77.1,55.875,77.613,55.701,78.417C55.528,79.221,56.032,80.015,56.834,80.197C58.931,80.675,60.969,80.911,62.92,80.911C67.771,80.911,72.082,79.45,75.411,76.615C80,72.706,82.265,66.413,81.792,58.892C81.792,58.892,81.792,-36.406,81.792,-36.406C81.792,-42.597,77.585,-47.91,71.541,-49.331C71.541,-49.331,-55.121,-77.296,-55.121,-77.296C-55.121,-77.296,-54.901,-77.296,-54.901,-77.296C-54.901,-77.296,-70.238,-79.377,-70.238,-79.377C-70.294,-79.244,-70.347,-79.109,-70.364,-78.959Z" /></g></g></g></g></g></g><g id="i49"><g transform="translate(105.5,247)"><animateTransform repeatCount="indefinite" type="translate" attributeName="transform" dur="4s" begin="0s" calcMode="spline" values="105.5 247; 105.5 186; 105.5 186; 105.5 247; 105.5 247" keyTimes="0; 0.125; 0.65; 0.775; 1" keySplines="0.432 0 0.063 1; 0 0 1 1; 0.425 0 0.076 1; 0 0 1 1" fill="freeze" /><g transform="scale(0.72,0.72) translate(-200,-200)"><g clip-path="url(#i0)"><g transform="matrix(0.582,0.757,-0.251,0.515,200,200)"><g transform="matrix(1,0,0,1,7.044,14.544)"><g transform="matrix(1,0,0,1,-11.5,-20.5)"><ellipse ry="40" rx="40" cy="0" cx="0" fill="#ffd737" /></g><g transform="matrix(1.191,0,0,1.191,-11.5,-20.5)"><ellipse ry="23.125" rx="23.125" cy="0" cx="0" fill="#fcac00" /></g><g transform="matrix(1,0,0,1,-11.375,-10.5)"><path fill="#752b00" d="M1.276,2.512C1.276,2.512,1.276,-0.526,1.276,-0.526C4.284,-1.022,5.89,-3.184,5.89,-5.491C5.89,-8.09,4.371,-9.608,1.363,-10.835C-1.178,-11.886,-2.258,-12.646,-2.258,-14.165C-2.258,-15.333,-1.411,-16.676,0.838,-16.676C2.707,-16.676,3.905,-16.033,4.518,-15.683C4.518,-15.683,5.248,-17.611,5.248,-17.611C4.401,-18.107,3.203,-18.575,1.451,-18.633C1.451,-18.633,1.451,-21.466,1.451,-21.466C1.451,-21.466,-0.36,-21.466,-0.36,-21.466C-0.36,-21.466,-0.36,-18.516,-0.36,-18.516C-3.047,-18.078,-4.77,-16.238,-4.77,-13.814C-4.77,-11.273,-2.93,-9.93,0.049,-8.762C2.21,-7.886,3.349,-6.892,3.349,-5.286C3.349,-3.621,1.948,-2.424,-0.126,-2.424C-1.761,-2.424,-3.281,-2.979,-4.332,-3.68C-4.332,-3.68,-5.033,-1.723,-5.033,-1.723C-4.011,-0.993,-2.258,-0.467,-0.564,-0.438C-0.564,-0.438,-0.564,2.512,-0.564,2.512C-0.564,2.512,1.276,2.512,1.276,2.512Z" /></g></g></g><g transform="matrix(0.582,0.757,-0.251,0.515,200,200)"><g filter="url(#f1)" transform="matrix(1,0,0,1,7.044,14.544)"><g transform="matrix(1,0,0,1,-11.5,-20.5)"><ellipse ry="40" rx="40" cy="0" cx="0" fill="#ffd737" /></g><g transform="matrix(1.191,0,0,1.191,-11.5,-20.5)"><ellipse ry="23.125" rx="23.125" cy="0" cx="0" fill="#fcac00" /></g><g transform="matrix(1,0,0,1,-11.375,-10.5)"><path fill="#752b00" d="M1.276,2.512C1.276,2.512,1.276,-0.526,1.276,-0.526C4.284,-1.022,5.89,-3.184,5.89,-5.491C5.89,-8.09,4.371,-9.608,1.363,-10.835C-1.178,-11.886,-2.258,-12.646,-2.258,-14.165C-2.258,-15.333,-1.411,-16.676,0.838,-16.676C2.707,-16.676,3.905,-16.033,4.518,-15.683C4.518,-15.683,5.248,-17.611,5.248,-17.611C4.401,-18.107,3.203,-18.575,1.451,-18.633C1.451,-18.633,1.451,-21.466,1.451,-21.466C1.451,-21.466,-0.36,-21.466,-0.36,-21.466C-0.36,-21.466,-0.36,-18.516,-0.36,-18.516C-3.047,-18.078,-4.77,-16.238,-4.77,-13.814C-4.77,-11.273,-2.93,-9.93,0.049,-8.762C2.21,-7.886,3.349,-6.892,3.349,-5.286C3.349,-3.621,1.948,-2.424,-0.126,-2.424C-1.761,-2.424,-3.281,-2.979,-4.332,-3.68C-4.332,-3.68,-5.033,-1.723,-5.033,-1.723C-4.011,-0.993,-2.258,-0.467,-0.564,-0.438C-0.564,-0.438,-0.564,2.512,-0.564,2.512C-0.564,2.512,1.276,2.512,1.276,2.512Z" /></g></g></g><g transform="matrix(0.582,0.757,-0.251,0.515,200,200)"><g filter="url(#f2)" transform="matrix(1,0,0,1,7.044,14.544)"><g transform="matrix(1,0,0,1,-11.5,-20.5)"><ellipse ry="40" rx="40" cy="0" cx="0" fill="#ffd737" /></g><g transform="matrix(1.191,0,0,1.191,-11.5,-20.5)"><ellipse ry="23.125" rx="23.125" cy="0" cx="0" fill="#fcac00" /></g><g transform="matrix(1,0,0,1,-11.375,-10.5)"><path fill="#752b00" d="M1.276,2.512C1.276,2.512,1.276,-0.526,1.276,-0.526C4.284,-1.022,5.89,-3.184,5.89,-5.491C5.89,-8.09,4.371,-9.608,1.363,-10.835C-1.178,-11.886,-2.258,-12.646,-2.258,-14.165C-2.258,-15.333,-1.411,-16.676,0.838,-16.676C2.707,-16.676,3.905,-16.033,4.518,-15.683C4.518,-15.683,5.248,-17.611,5.248,-17.611C4.401,-18.107,3.203,-18.575,1.451,-18.633C1.451,-18.633,1.451,-21.466,1.451,-21.466C1.451,-21.466,-0.36,-21.466,-0.36,-21.466C-0.36,-21.466,-0.36,-18.516,-0.36,-18.516C-3.047,-18.078,-4.77,-16.238,-4.77,-13.814C-4.77,-11.273,-2.93,-9.93,0.049,-8.762C2.21,-7.886,3.349,-6.892,3.349,-5.286C3.349,-3.621,1.948,-2.424,-0.126,-2.424C-1.761,-2.424,-3.281,-2.979,-4.332,-3.68C-4.332,-3.68,-5.033,-1.723,-5.033,-1.723C-4.011,-0.993,-2.258,-0.467,-0.564,-0.438C-0.564,-0.438,-0.564,2.512,-0.564,2.512C-0.564,2.512,1.276,2.512,1.276,2.512Z" /></g></g></g><g transform="matrix(0.582,0.757,-0.251,0.515,200,200)"><g filter="url(#f3)" transform="matrix(1,0,0,1,7.044,14.544)"><g transform="matrix(1,0,0,1,-11.5,-20.5)"><ellipse ry="40" rx="40" cy="0" cx="0" fill="#ffd737" /></g><g transform="matrix(1.191,0,0,1.191,-11.5,-20.5)"><ellipse ry="23.125" rx="23.125" cy="0" cx="0" fill="#fcac00" /></g><g transform="matrix(1,0,0,1,-11.375,-10.5)"><path fill="#752b00" d="M1.276,2.512C1.276,2.512,1.276,-0.526,1.276,-0.526C4.284,-1.022,5.89,-3.184,5.89,-5.491C5.89,-8.09,4.371,-9.608,1.363,-10.835C-1.178,-11.886,-2.258,-12.646,-2.258,-14.165C-2.258,-15.333,-1.411,-16.676,0.838,-16.676C2.707,-16.676,3.905,-16.033,4.518,-15.683C4.518,-15.683,5.248,-17.611,5.248,-17.611C4.401,-18.107,3.203,-18.575,1.451,-18.633C1.451,-18.633,1.451,-21.466,1.451,-21.466C1.451,-21.466,-0.36,-21.466,-0.36,-21.466C-0.36,-21.466,-0.36,-18.516,-0.36,-18.516C-3.047,-18.078,-4.77,-16.238,-4.77,-13.814C-4.77,-11.273,-2.93,-9.93,0.049,-8.762C2.21,-7.886,3.349,-6.892,3.349,-5.286C3.349,-3.621,1.948,-2.424,-0.126,-2.424C-1.761,-2.424,-3.281,-2.979,-4.332,-3.68C-4.332,-3.68,-5.033,-1.723,-5.033,-1.723C-4.011,-0.993,-2.258,-0.467,-0.564,-0.438C-0.564,-0.438,-0.564,2.512,-0.564,2.512C-0.564,2.512,1.276,2.512,1.276,2.512Z" /></g></g></g><g transform="matrix(0.582,0.757,-0.251,0.515,200,200)"><g filter="url(#f4)" transform="matrix(1,0,0,1,7.044,14.544)"><g transform="matrix(1,0,0,1,-11.5,-20.5)"><ellipse ry="40" rx="40" cy="0" cx="0" fill="#ffd737" /></g><g transform="matrix(1.191,0,0,1.191,-11.5,-20.5)"><ellipse ry="23.125" rx="23.125" cy="0" cx="0" fill="#fcac00" /></g><g transform="matrix(1,0,0,1,-11.375,-10.5)"><path fill="#752b00" d="M1.276,2.512C1.276,2.512,1.276,-0.526,1.276,-0.526C4.284,-1.022,5.89,-3.184,5.89,-5.491C5.89,-8.09,4.371,-9.608,1.363,-10.835C-1.178,-11.886,-2.258,-12.646,-2.258,-14.165C-2.258,-15.333,-1.411,-16.676,0.838,-16.676C2.707,-16.676,3.905,-16.033,4.518,-15.683C4.518,-15.683,5.248,-17.611,5.248,-17.611C4.401,-18.107,3.203,-18.575,1.451,-18.633C1.451,-18.633,1.451,-21.466,1.451,-21.466C1.451,-21.466,-0.36,-21.466,-0.36,-21.466C-0.36,-21.466,-0.36,-18.516,-0.36,-18.516C-3.047,-18.078,-4.77,-16.238,-4.77,-13.814C-4.77,-11.273,-2.93,-9.93,0.049,-8.762C2.21,-7.886,3.349,-6.892,3.349,-5.286C3.349,-3.621,1.948,-2.424,-0.126,-2.424C-1.761,-2.424,-3.281,-2.979,-4.332,-3.68C-4.332,-3.68,-5.033,-1.723,-5.033,-1.723C-4.011,-0.993,-2.258,-0.467,-0.564,-0.438C-0.564,-0.438,-0.564,2.512,-0.564,2.512C-0.564,2.512,1.276,2.512,1.276,2.512Z" /></g></g></g><g transform="matrix(0.582,0.757,-0.251,0.515,200,200)"><g filter="url(#f5)" transform="matrix(1,0,0,1,7.044,14.544)"><g transform="matrix(1,0,0,1,-11.5,-20.5)"><ellipse ry="40" rx="40" cy="0" cx="0" fill="#ffd737" /></g><g transform="matrix(1.191,0,0,1.191,-11.5,-20.5)"><ellipse ry="23.125" rx="23.125" cy="0" cx="0" fill="#fcac00" /></g><g transform="matrix(1,0,0,1,-11.375,-10.5)"><path fill="#752b00" d="M1.276,2.512C1.276,2.512,1.276,-0.526,1.276,-0.526C4.284,-1.022,5.89,-3.184,5.89,-5.491C5.89,-8.09,4.371,-9.608,1.363,-10.835C-1.178,-11.886,-2.258,-12.646,-2.258,-14.165C-2.258,-15.333,-1.411,-16.676,0.838,-16.676C2.707,-16.676,3.905,-16.033,4.518,-15.683C4.518,-15.683,5.248,-17.611,5.248,-17.611C4.401,-18.107,3.203,-18.575,1.451,-18.633C1.451,-18.633,1.451,-21.466,1.451,-21.466C1.451,-21.466,-0.36,-21.466,-0.36,-21.466C-0.36,-21.466,-0.36,-18.516,-0.36,-18.516C-3.047,-18.078,-4.77,-16.238,-4.77,-13.814C-4.77,-11.273,-2.93,-9.93,0.049,-8.762C2.21,-7.886,3.349,-6.892,3.349,-5.286C3.349,-3.621,1.948,-2.424,-0.126,-2.424C-1.761,-2.424,-3.281,-2.979,-4.332,-3.68C-4.332,-3.68,-5.033,-1.723,-5.033,-1.723C-4.011,-0.993,-2.258,-0.467,-0.564,-0.438C-0.564,-0.438,-0.564,2.512,-0.564,2.512C-0.564,2.512,1.276,2.512,1.276,2.512Z" /></g></g></g><g transform="matrix(0.582,0.757,-0.251,0.515,200,200)"><g filter="url(#f6)" transform="matrix(1,0,0,1,7.044,14.544)"><g transform="matrix(1,0,0,1,-11.5,-20.5)"><ellipse ry="40" rx="40" cy="0" cx="0" fill="#ffd737" /></g><g transform="matrix(1.191,0,0,1.191,-11.5,-20.5)"><ellipse ry="23.125" rx="23.125" cy="0" cx="0" fill="#fcac00" /></g><g transform="matrix(1,0,0,1,-11.375,-10.5)"><path fill="#752b00" d="M1.276,2.512C1.276,2.512,1.276,-0.526,1.276,-0.526C4.284,-1.022,5.89,-3.184,5.89,-5.491C5.89,-8.09,4.371,-9.608,1.363,-10.835C-1.178,-11.886,-2.258,-12.646,-2.258,-14.165C-2.258,-15.333,-1.411,-16.676,0.838,-16.676C2.707,-16.676,3.905,-16.033,4.518,-15.683C4.518,-15.683,5.248,-17.611,5.248,-17.611C4.401,-18.107,3.203,-18.575,1.451,-18.633C1.451,-18.633,1.451,-21.466,1.451,-21.466C1.451,-21.466,-0.36,-21.466,-0.36,-21.466C-0.36,-21.466,-0.36,-18.516,-0.36,-18.516C-3.047,-18.078,-4.77,-16.238,-4.77,-13.814C-4.77,-11.273,-2.93,-9.93,0.049,-8.762C2.21,-7.886,3.349,-6.892,3.349,-5.286C3.349,-3.621,1.948,-2.424,-0.126,-2.424C-1.761,-2.424,-3.281,-2.979,-4.332,-3.68C-4.332,-3.68,-5.033,-1.723,-5.033,-1.723C-4.011,-0.993,-2.258,-0.467,-0.564,-0.438C-0.564,-0.438,-0.564,2.512,-0.564,2.512C-0.564,2.512,1.276,2.512,1.276,2.512Z" /></g></g></g><g transform="matrix(0.582,0.757,-0.251,0.515,200,200)"><g filter="url(#f7)" transform="matrix(1,0,0,1,7.044,14.544)"><g transform="matrix(1,0,0,1,-11.5,-20.5)"><ellipse ry="40" rx="40" cy="0" cx="0" fill="#ffd737" /></g><g transform="matrix(1.191,0,0,1.191,-11.5,-20.5)"><ellipse ry="23.125" rx="23.125" cy="0" cx="0" fill="#fcac00" /></g><g transform="matrix(1,0,0,1,-11.375,-10.5)"><path fill="#752b00" d="M1.276,2.512C1.276,2.512,1.276,-0.526,1.276,-0.526C4.284,-1.022,5.89,-3.184,5.89,-5.491C5.89,-8.09,4.371,-9.608,1.363,-10.835C-1.178,-11.886,-2.258,-12.646,-2.258,-14.165C-2.258,-15.333,-1.411,-16.676,0.838,-16.676C2.707,-16.676,3.905,-16.033,4.518,-15.683C4.518,-15.683,5.248,-17.611,5.248,-17.611C4.401,-18.107,3.203,-18.575,1.451,-18.633C1.451,-18.633,1.451,-21.466,1.451,-21.466C1.451,-21.466,-0.36,-21.466,-0.36,-21.466C-0.36,-21.466,-0.36,-18.516,-0.36,-18.516C-3.047,-18.078,-4.77,-16.238,-4.77,-13.814C-4.77,-11.273,-2.93,-9.93,0.049,-8.762C2.21,-7.886,3.349,-6.892,3.349,-5.286C3.349,-3.621,1.948,-2.424,-0.126,-2.424C-1.761,-2.424,-3.281,-2.979,-4.332,-3.68C-4.332,-3.68,-5.033,-1.723,-5.033,-1.723C-4.011,-0.993,-2.258,-0.467,-0.564,-0.438C-0.564,-0.438,-0.564,2.512,-0.564,2.512C-0.564,2.512,1.276,2.512,1.276,2.512Z" /></g></g></g><g transform="matrix(0.582,0.757,-0.251,0.515,200,200)"><g filter="url(#f8)" transform="matrix(1,0,0,1,7.044,14.544)"><g transform="matrix(1,0,0,1,-11.5,-20.5)"><ellipse ry="40" rx="40" cy="0" cx="0" fill="#ffd737" /></g><g transform="matrix(1.191,0,0,1.191,-11.5,-20.5)"><ellipse ry="23.125" rx="23.125" cy="0" cx="0" fill="#fcac00" /></g><g transform="matrix(1,0,0,1,-11.375,-10.5)"><path fill="#752b00" d="M1.276,2.512C1.276,2.512,1.276,-0.526,1.276,-0.526C4.284,-1.022,5.89,-3.184,5.89,-5.491C5.89,-8.09,4.371,-9.608,1.363,-10.835C-1.178,-11.886,-2.258,-12.646,-2.258,-14.165C-2.258,-15.333,-1.411,-16.676,0.838,-16.676C2.707,-16.676,3.905,-16.033,4.518,-15.683C4.518,-15.683,5.248,-17.611,5.248,-17.611C4.401,-18.107,3.203,-18.575,1.451,-18.633C1.451,-18.633,1.451,-21.466,1.451,-21.466C1.451,-21.466,-0.36,-21.466,-0.36,-21.466C-0.36,-21.466,-0.36,-18.516,-0.36,-18.516C-3.047,-18.078,-4.77,-16.238,-4.77,-13.814C-4.77,-11.273,-2.93,-9.93,0.049,-8.762C2.21,-7.886,3.349,-6.892,3.349,-5.286C3.349,-3.621,1.948,-2.424,-0.126,-2.424C-1.761,-2.424,-3.281,-2.979,-4.332,-3.68C-4.332,-3.68,-5.033,-1.723,-5.033,-1.723C-4.011,-0.993,-2.258,-0.467,-0.564,-0.438C-0.564,-0.438,-0.564,2.512,-0.564,2.512C-0.564,2.512,1.276,2.512,1.276,2.512Z" /></g></g></g><g transform="matrix(0.582,0.757,-0.251,0.515,200,200)"><g transform="matrix(1,0,0,1,7.044,14.544)"><g transform="matrix(1,0,0,1,-11.5,-20.5)"><ellipse ry="40" rx="40" cy="0" cx="0" fill="#ffd737" /></g><g transform="matrix(1.191,0,0,1.191,-11.5,-20.5)"><ellipse ry="23.125" rx="23.125" cy="0" cx="0" fill="#fcac00" /></g><g transform="matrix(1,0,0,1,-11.375,-10.5)"><path fill="#752b00" d="M1.276,2.512C1.276,2.512,1.276,-0.526,1.276,-0.526C4.284,-1.022,5.89,-3.184,5.89,-5.491C5.89,-8.09,4.371,-9.608,1.363,-10.835C-1.178,-11.886,-2.258,-12.646,-2.258,-14.165C-2.258,-15.333,-1.411,-16.676,0.838,-16.676C2.707,-16.676,3.905,-16.033,4.518,-15.683C4.518,-15.683,5.248,-17.611,5.248,-17.611C4.401,-18.107,3.203,-18.575,1.451,-18.633C1.451,-18.633,1.451,-21.466,1.451,-21.466C1.451,-21.466,-0.36,-21.466,-0.36,-21.466C-0.36,-21.466,-0.36,-18.516,-0.36,-18.516C-3.047,-18.078,-4.77,-16.238,-4.77,-13.814C-4.77,-11.273,-2.93,-9.93,0.049,-8.762C2.21,-7.886,3.349,-6.892,3.349,-5.286C3.349,-3.621,1.948,-2.424,-0.126,-2.424C-1.761,-2.424,-3.281,-2.979,-4.332,-3.68C-4.332,-3.68,-5.033,-1.723,-5.033,-1.723C-4.011,-0.993,-2.258,-0.467,-0.564,-0.438C-0.564,-0.438,-0.564,2.512,-0.564,2.512C-0.564,2.512,1.276,2.512,1.276,2.512Z" /></g></g></g><g transform="matrix(0.582,0.757,-0.251,0.515,200,200)" opacity="0" /></g></g></g></g><g id="i49"><g transform="translate(311,204)"><animateTransform repeatCount="indefinite" type="translate" attributeName="transform" dur="4s" begin="0s" calcMode="spline" values="311 204; 311 204; 311 130; 311 130; 311 204; 311 204" keyTimes="0; 0.041667; 0.166666; 0.691667; 0.816667; 1" keySplines="0 0 1 1; 0.486 0 0.089 1; 0 0 1 1; 0.486 0 0.089 1; 0 0 1 1" fill="freeze" /><g transform="scale(-0.76,0.76) translate(-200,-200)"><g clip-path="url(#i0)"><g transform="matrix(0.582,0.757,-0.251,0.515,200,200)"><g transform="matrix(1,0,0,1,7.044,14.544)"><g transform="matrix(1,0,0,1,-11.5,-20.5)"><ellipse ry="40" rx="40" cy="0" cx="0" fill="#ffd737" /></g><g transform="matrix(1.191,0,0,1.191,-11.5,-20.5)"><ellipse ry="23.125" rx="23.125" cy="0" cx="0" fill="#fcac00" /></g><g transform="matrix(1,0,0,1,-11.375,-10.5)"><path fill="#752b00" d="M1.276,2.512C1.276,2.512,1.276,-0.526,1.276,-0.526C4.284,-1.022,5.89,-3.184,5.89,-5.491C5.89,-8.09,4.371,-9.608,1.363,-10.835C-1.178,-11.886,-2.258,-12.646,-2.258,-14.165C-2.258,-15.333,-1.411,-16.676,0.838,-16.676C2.707,-16.676,3.905,-16.033,4.518,-15.683C4.518,-15.683,5.248,-17.611,5.248,-17.611C4.401,-18.107,3.203,-18.575,1.451,-18.633C1.451,-18.633,1.451,-21.466,1.451,-21.466C1.451,-21.466,-0.36,-21.466,-0.36,-21.466C-0.36,-21.466,-0.36,-18.516,-0.36,-18.516C-3.047,-18.078,-4.77,-16.238,-4.77,-13.814C-4.77,-11.273,-2.93,-9.93,0.049,-8.762C2.21,-7.886,3.349,-6.892,3.349,-5.286C3.349,-3.621,1.948,-2.424,-0.126,-2.424C-1.761,-2.424,-3.281,-2.979,-4.332,-3.68C-4.332,-3.68,-5.033,-1.723,-5.033,-1.723C-4.011,-0.993,-2.258,-0.467,-0.564,-0.438C-0.564,-0.438,-0.564,2.512,-0.564,2.512C-0.564,2.512,1.276,2.512,1.276,2.512Z" /></g></g></g><g transform="matrix(0.582,0.757,-0.251,0.515,200,200)"><g filter="url(#f1)" transform="matrix(1,0,0,1,7.044,14.544)"><g transform="matrix(1,0,0,1,-11.5,-20.5)"><ellipse ry="40" rx="40" cy="0" cx="0" fill="#ffd737" /></g><g transform="matrix(1.191,0,0,1.191,-11.5,-20.5)"><ellipse ry="23.125" rx="23.125" cy="0" cx="0" fill="#fcac00" /></g><g transform="matrix(1,0,0,1,-11.375,-10.5)"><path fill="#752b00" d="M1.276,2.512C1.276,2.512,1.276,-0.526,1.276,-0.526C4.284,-1.022,5.89,-3.184,5.89,-5.491C5.89,-8.09,4.371,-9.608,1.363,-10.835C-1.178,-11.886,-2.258,-12.646,-2.258,-14.165C-2.258,-15.333,-1.411,-16.676,0.838,-16.676C2.707,-16.676,3.905,-16.033,4.518,-15.683C4.518,-15.683,5.248,-17.611,5.248,-17.611C4.401,-18.107,3.203,-18.575,1.451,-18.633C1.451,-18.633,1.451,-21.466,1.451,-21.466C1.451,-21.466,-0.36,-21.466,-0.36,-21.466C-0.36,-21.466,-0.36,-18.516,-0.36,-18.516C-3.047,-18.078,-4.77,-16.238,-4.77,-13.814C-4.77,-11.273,-2.93,-9.93,0.049,-8.762C2.21,-7.886,3.349,-6.892,3.349,-5.286C3.349,-3.621,1.948,-2.424,-0.126,-2.424C-1.761,-2.424,-3.281,-2.979,-4.332,-3.68C-4.332,-3.68,-5.033,-1.723,-5.033,-1.723C-4.011,-0.993,-2.258,-0.467,-0.564,-0.438C-0.564,-0.438,-0.564,2.512,-0.564,2.512C-0.564,2.512,1.276,2.512,1.276,2.512Z" /></g></g></g><g transform="matrix(0.582,0.757,-0.251,0.515,200,200)"><g filter="url(#f2)" transform="matrix(1,0,0,1,7.044,14.544)"><g transform="matrix(1,0,0,1,-11.5,-20.5)"><ellipse ry="40" rx="40" cy="0" cx="0" fill="#ffd737" /></g><g transform="matrix(1.191,0,0,1.191,-11.5,-20.5)"><ellipse ry="23.125" rx="23.125" cy="0" cx="0" fill="#fcac00" /></g><g transform="matrix(1,0,0,1,-11.375,-10.5)"><path fill="#752b00" d="M1.276,2.512C1.276,2.512,1.276,-0.526,1.276,-0.526C4.284,-1.022,5.89,-3.184,5.89,-5.491C5.89,-8.09,4.371,-9.608,1.363,-10.835C-1.178,-11.886,-2.258,-12.646,-2.258,-14.165C-2.258,-15.333,-1.411,-16.676,0.838,-16.676C2.707,-16.676,3.905,-16.033,4.518,-15.683C4.518,-15.683,5.248,-17.611,5.248,-17.611C4.401,-18.107,3.203,-18.575,1.451,-18.633C1.451,-18.633,1.451,-21.466,1.451,-21.466C1.451,-21.466,-0.36,-21.466,-0.36,-21.466C-0.36,-21.466,-0.36,-18.516,-0.36,-18.516C-3.047,-18.078,-4.77,-16.238,-4.77,-13.814C-4.77,-11.273,-2.93,-9.93,0.049,-8.762C2.21,-7.886,3.349,-6.892,3.349,-5.286C3.349,-3.621,1.948,-2.424,-0.126,-2.424C-1.761,-2.424,-3.281,-2.979,-4.332,-3.68C-4.332,-3.68,-5.033,-1.723,-5.033,-1.723C-4.011,-0.993,-2.258,-0.467,-0.564,-0.438C-0.564,-0.438,-0.564,2.512,-0.564,2.512C-0.564,2.512,1.276,2.512,1.276,2.512Z" /></g></g></g><g transform="matrix(0.582,0.757,-0.251,0.515,200,200)"><g filter="url(#f3)" transform="matrix(1,0,0,1,7.044,14.544)"><g transform="matrix(1,0,0,1,-11.5,-20.5)"><ellipse ry="40" rx="40" cy="0" cx="0" fill="#ffd737" /></g><g transform="matrix(1.191,0,0,1.191,-11.5,-20.5)"><ellipse ry="23.125" rx="23.125" cy="0" cx="0" fill="#fcac00" /></g><g transform="matrix(1,0,0,1,-11.375,-10.5)"><path fill="#752b00" d="M1.276,2.512C1.276,2.512,1.276,-0.526,1.276,-0.526C4.284,-1.022,5.89,-3.184,5.89,-5.491C5.89,-8.09,4.371,-9.608,1.363,-10.835C-1.178,-11.886,-2.258,-12.646,-2.258,-14.165C-2.258,-15.333,-1.411,-16.676,0.838,-16.676C2.707,-16.676,3.905,-16.033,4.518,-15.683C4.518,-15.683,5.248,-17.611,5.248,-17.611C4.401,-18.107,3.203,-18.575,1.451,-18.633C1.451,-18.633,1.451,-21.466,1.451,-21.466C1.451,-21.466,-0.36,-21.466,-0.36,-21.466C-0.36,-21.466,-0.36,-18.516,-0.36,-18.516C-3.047,-18.078,-4.77,-16.238,-4.77,-13.814C-4.77,-11.273,-2.93,-9.93,0.049,-8.762C2.21,-7.886,3.349,-6.892,3.349,-5.286C3.349,-3.621,1.948,-2.424,-0.126,-2.424C-1.761,-2.424,-3.281,-2.979,-4.332,-3.68C-4.332,-3.68,-5.033,-1.723,-5.033,-1.723C-4.011,-0.993,-2.258,-0.467,-0.564,-0.438C-0.564,-0.438,-0.564,2.512,-0.564,2.512C-0.564,2.512,1.276,2.512,1.276,2.512Z" /></g></g></g><g transform="matrix(0.582,0.757,-0.251,0.515,200,200)"><g filter="url(#f4)" transform="matrix(1,0,0,1,7.044,14.544)"><g transform="matrix(1,0,0,1,-11.5,-20.5)"><ellipse ry="40" rx="40" cy="0" cx="0" fill="#ffd737" /></g><g transform="matrix(1.191,0,0,1.191,-11.5,-20.5)"><ellipse ry="23.125" rx="23.125" cy="0" cx="0" fill="#fcac00" /></g><g transform="matrix(1,0,0,1,-11.375,-10.5)"><path fill="#752b00" d="M1.276,2.512C1.276,2.512,1.276,-0.526,1.276,-0.526C4.284,-1.022,5.89,-3.184,5.89,-5.491C5.89,-8.09,4.371,-9.608,1.363,-10.835C-1.178,-11.886,-2.258,-12.646,-2.258,-14.165C-2.258,-15.333,-1.411,-16.676,0.838,-16.676C2.707,-16.676,3.905,-16.033,4.518,-15.683C4.518,-15.683,5.248,-17.611,5.248,-17.611C4.401,-18.107,3.203,-18.575,1.451,-18.633C1.451,-18.633,1.451,-21.466,1.451,-21.466C1.451,-21.466,-0.36,-21.466,-0.36,-21.466C-0.36,-21.466,-0.36,-18.516,-0.36,-18.516C-3.047,-18.078,-4.77,-16.238,-4.77,-13.814C-4.77,-11.273,-2.93,-9.93,0.049,-8.762C2.21,-7.886,3.349,-6.892,3.349,-5.286C3.349,-3.621,1.948,-2.424,-0.126,-2.424C-1.761,-2.424,-3.281,-2.979,-4.332,-3.68C-4.332,-3.68,-5.033,-1.723,-5.033,-1.723C-4.011,-0.993,-2.258,-0.467,-0.564,-0.438C-0.564,-0.438,-0.564,2.512,-0.564,2.512C-0.564,2.512,1.276,2.512,1.276,2.512Z" /></g></g></g><g transform="matrix(0.582,0.757,-0.251,0.515,200,200)"><g filter="url(#f5)" transform="matrix(1,0,0,1,7.044,14.544)"><g transform="matrix(1,0,0,1,-11.5,-20.5)"><ellipse ry="40" rx="40" cy="0" cx="0" fill="#ffd737" /></g><g transform="matrix(1.191,0,0,1.191,-11.5,-20.5)"><ellipse ry="23.125" rx="23.125" cy="0" cx="0" fill="#fcac00" /></g><g transform="matrix(1,0,0,1,-11.375,-10.5)"><path fill="#752b00" d="M1.276,2.512C1.276,2.512,1.276,-0.526,1.276,-0.526C4.284,-1.022,5.89,-3.184,5.89,-5.491C5.89,-8.09,4.371,-9.608,1.363,-10.835C-1.178,-11.886,-2.258,-12.646,-2.258,-14.165C-2.258,-15.333,-1.411,-16.676,0.838,-16.676C2.707,-16.676,3.905,-16.033,4.518,-15.683C4.518,-15.683,5.248,-17.611,5.248,-17.611C4.401,-18.107,3.203,-18.575,1.451,-18.633C1.451,-18.633,1.451,-21.466,1.451,-21.466C1.451,-21.466,-0.36,-21.466,-0.36,-21.466C-0.36,-21.466,-0.36,-18.516,-0.36,-18.516C-3.047,-18.078,-4.77,-16.238,-4.77,-13.814C-4.77,-11.273,-2.93,-9.93,0.049,-8.762C2.21,-7.886,3.349,-6.892,3.349,-5.286C3.349,-3.621,1.948,-2.424,-0.126,-2.424C-1.761,-2.424,-3.281,-2.979,-4.332,-3.68C-4.332,-3.68,-5.033,-1.723,-5.033,-1.723C-4.011,-0.993,-2.258,-0.467,-0.564,-0.438C-0.564,-0.438,-0.564,2.512,-0.564,2.512C-0.564,2.512,1.276,2.512,1.276,2.512Z" /></g></g></g><g transform="matrix(0.582,0.757,-0.251,0.515,200,200)"><g filter="url(#f6)" transform="matrix(1,0,0,1,7.044,14.544)"><g transform="matrix(1,0,0,1,-11.5,-20.5)"><ellipse ry="40" rx="40" cy="0" cx="0" fill="#ffd737" /></g><g transform="matrix(1.191,0,0,1.191,-11.5,-20.5)"><ellipse ry="23.125" rx="23.125" cy="0" cx="0" fill="#fcac00" /></g><g transform="matrix(1,0,0,1,-11.375,-10.5)"><path fill="#752b00" d="M1.276,2.512C1.276,2.512,1.276,-0.526,1.276,-0.526C4.284,-1.022,5.89,-3.184,5.89,-5.491C5.89,-8.09,4.371,-9.608,1.363,-10.835C-1.178,-11.886,-2.258,-12.646,-2.258,-14.165C-2.258,-15.333,-1.411,-16.676,0.838,-16.676C2.707,-16.676,3.905,-16.033,4.518,-15.683C4.518,-15.683,5.248,-17.611,5.248,-17.611C4.401,-18.107,3.203,-18.575,1.451,-18.633C1.451,-18.633,1.451,-21.466,1.451,-21.466C1.451,-21.466,-0.36,-21.466,-0.36,-21.466C-0.36,-21.466,-0.36,-18.516,-0.36,-18.516C-3.047,-18.078,-4.77,-16.238,-4.77,-13.814C-4.77,-11.273,-2.93,-9.93,0.049,-8.762C2.21,-7.886,3.349,-6.892,3.349,-5.286C3.349,-3.621,1.948,-2.424,-0.126,-2.424C-1.761,-2.424,-3.281,-2.979,-4.332,-3.68C-4.332,-3.68,-5.033,-1.723,-5.033,-1.723C-4.011,-0.993,-2.258,-0.467,-0.564,-0.438C-0.564,-0.438,-0.564,2.512,-0.564,2.512C-0.564,2.512,1.276,2.512,1.276,2.512Z" /></g></g></g><g transform="matrix(0.582,0.757,-0.251,0.515,200,200)"><g filter="url(#f7)" transform="matrix(1,0,0,1,7.044,14.544)"><g transform="matrix(1,0,0,1,-11.5,-20.5)"><ellipse ry="40" rx="40" cy="0" cx="0" fill="#ffd737" /></g><g transform="matrix(1.191,0,0,1.191,-11.5,-20.5)"><ellipse ry="23.125" rx="23.125" cy="0" cx="0" fill="#fcac00" /></g><g transform="matrix(1,0,0,1,-11.375,-10.5)"><path fill="#752b00" d="M1.276,2.512C1.276,2.512,1.276,-0.526,1.276,-0.526C4.284,-1.022,5.89,-3.184,5.89,-5.491C5.89,-8.09,4.371,-9.608,1.363,-10.835C-1.178,-11.886,-2.258,-12.646,-2.258,-14.165C-2.258,-15.333,-1.411,-16.676,0.838,-16.676C2.707,-16.676,3.905,-16.033,4.518,-15.683C4.518,-15.683,5.248,-17.611,5.248,-17.611C4.401,-18.107,3.203,-18.575,1.451,-18.633C1.451,-18.633,1.451,-21.466,1.451,-21.466C1.451,-21.466,-0.36,-21.466,-0.36,-21.466C-0.36,-21.466,-0.36,-18.516,-0.36,-18.516C-3.047,-18.078,-4.77,-16.238,-4.77,-13.814C-4.77,-11.273,-2.93,-9.93,0.049,-8.762C2.21,-7.886,3.349,-6.892,3.349,-5.286C3.349,-3.621,1.948,-2.424,-0.126,-2.424C-1.761,-2.424,-3.281,-2.979,-4.332,-3.68C-4.332,-3.68,-5.033,-1.723,-5.033,-1.723C-4.011,-0.993,-2.258,-0.467,-0.564,-0.438C-0.564,-0.438,-0.564,2.512,-0.564,2.512C-0.564,2.512,1.276,2.512,1.276,2.512Z" /></g></g></g><g transform="matrix(0.582,0.757,-0.251,0.515,200,200)"><g filter="url(#f8)" transform="matrix(1,0,0,1,7.044,14.544)"><g transform="matrix(1,0,0,1,-11.5,-20.5)"><ellipse ry="40" rx="40" cy="0" cx="0" fill="#ffd737" /></g><g transform="matrix(1.191,0,0,1.191,-11.5,-20.5)"><ellipse ry="23.125" rx="23.125" cy="0" cx="0" fill="#fcac00" /></g><g transform="matrix(1,0,0,1,-11.375,-10.5)"><path fill="#752b00" d="M1.276,2.512C1.276,2.512,1.276,-0.526,1.276,-0.526C4.284,-1.022,5.89,-3.184,5.89,-5.491C5.89,-8.09,4.371,-9.608,1.363,-10.835C-1.178,-11.886,-2.258,-12.646,-2.258,-14.165C-2.258,-15.333,-1.411,-16.676,0.838,-16.676C2.707,-16.676,3.905,-16.033,4.518,-15.683C4.518,-15.683,5.248,-17.611,5.248,-17.611C4.401,-18.107,3.203,-18.575,1.451,-18.633C1.451,-18.633,1.451,-21.466,1.451,-21.466C1.451,-21.466,-0.36,-21.466,-0.36,-21.466C-0.36,-21.466,-0.36,-18.516,-0.36,-18.516C-3.047,-18.078,-4.77,-16.238,-4.77,-13.814C-4.77,-11.273,-2.93,-9.93,0.049,-8.762C2.21,-7.886,3.349,-6.892,3.349,-5.286C3.349,-3.621,1.948,-2.424,-0.126,-2.424C-1.761,-2.424,-3.281,-2.979,-4.332,-3.68C-4.332,-3.68,-5.033,-1.723,-5.033,-1.723C-4.011,-0.993,-2.258,-0.467,-0.564,-0.438C-0.564,-0.438,-0.564,2.512,-0.564,2.512C-0.564,2.512,1.276,2.512,1.276,2.512Z" /></g></g></g><g transform="matrix(0.582,0.757,-0.251,0.515,200,200)"><g transform="matrix(1,0,0,1,7.044,14.544)"><g transform="matrix(1,0,0,1,-11.5,-20.5)"><ellipse ry="40" rx="40" cy="0" cx="0" fill="#ffd737" /></g><g transform="matrix(1.191,0,0,1.191,-11.5,-20.5)"><ellipse ry="23.125" rx="23.125" cy="0" cx="0" fill="#fcac00" /></g><g transform="matrix(1,0,0,1,-11.375,-10.5)"><path fill="#752b00" d="M1.276,2.512C1.276,2.512,1.276,-0.526,1.276,-0.526C4.284,-1.022,5.89,-3.184,5.89,-5.491C5.89,-8.09,4.371,-9.608,1.363,-10.835C-1.178,-11.886,-2.258,-12.646,-2.258,-14.165C-2.258,-15.333,-1.411,-16.676,0.838,-16.676C2.707,-16.676,3.905,-16.033,4.518,-15.683C4.518,-15.683,5.248,-17.611,5.248,-17.611C4.401,-18.107,3.203,-18.575,1.451,-18.633C1.451,-18.633,1.451,-21.466,1.451,-21.466C1.451,-21.466,-0.36,-21.466,-0.36,-21.466C-0.36,-21.466,-0.36,-18.516,-0.36,-18.516C-3.047,-18.078,-4.77,-16.238,-4.77,-13.814C-4.77,-11.273,-2.93,-9.93,0.049,-8.762C2.21,-7.886,3.349,-6.892,3.349,-5.286C3.349,-3.621,1.948,-2.424,-0.126,-2.424C-1.761,-2.424,-3.281,-2.979,-4.332,-3.68C-4.332,-3.68,-5.033,-1.723,-5.033,-1.723C-4.011,-0.993,-2.258,-0.467,-0.564,-0.438C-0.564,-0.438,-0.564,2.512,-0.564,2.512C-0.564,2.512,1.276,2.512,1.276,2.512Z" /></g></g></g><g transform="matrix(0.582,0.757,-0.251,0.515,200,200)" opacity="0" /></g></g></g></g><g opacity="0" id="i37"><g transform="translate(198,200)"><animateTransform repeatCount="indefinite" type="translate" attributeName="transform" dur="4s" begin="0s" calcMode="spline" values="198 200; 197 210; 197 210; 198 200; 198 200" keyTimes="0; 0.125; 0.579166; 0.726961; 1" keySplines="0.37 0 0.071 1; 0 0 1 1; 0.108 0 0.134 1; 0 0 1 1" fill="freeze" /><g transform="rotate(0)"><animateTransform repeatCount="indefinite" type="rotate" attributeName="transform" dur="4s" begin="0s" calcMode="spline" values="0; 4; 4; 0; 0" keyTimes="0; 0.125; 0.579167; 0.704167; 1" keySplines="0.333 0 0.667 1; 0.333 0 0.667 1; 0.333 0 0.667 1; 0 0 1 1" fill="freeze" /><g transform="scale(1,1) translate(-50,-50)" /></g></g></g></svg>